<?xml version='1.0' encoding='utf-8'?>
<svg xmlns="http://www.w3.org/2000/svg" viewBox="0,0,2167,1440" width="2167" height="1440" version="1.1"> <defs/> <g id="layer0"> <path d="M524.625,1003.81C524.288,1003.97 523.97,1004.17 523.625,1004.31C523.965,1004.16 524.292,1003.98 524.625,1003.81ZM505.406,1124.81C507.672,1124.86 509.71,1125.2 511.656,1125.69C509.713,1125.2 507.668,1124.86 505.406,1124.81ZM512.438,1125.84C514.286,1126.37 516,1127.12 517.594,1128.03C515.994,1127.12 514.294,1126.37 512.438,1125.84ZM518.25,1128.38C519.754,1129.3 521.16,1130.41 522.469,1131.66C521.155,1130.4 519.762,1129.3 518.25,1128.38Z" stroke="#c7c5c7" stroke-width="0.75" stroke-linecap="round" fill="#c7c5c7" stroke-linejoin="round"/> <path d="M863.236,721.421C863.271,726.259 865.6,729.4 862,729C862.4,731.1 866.4,732.8 866,735L870,735L872,736C873.9,733.9 875.2,736.5 876,736C875.6,735.6 876.5,731.3 879,732C882.1,732.1 885.2,727.8 889,727C890.1,728 894,729 892,729C897.9,736.1 880.479,740.017 887.979,745.117C887.679,746.817 892.7,747.8 894,749C897,745.6 953.488,749.398 953.488,749.398C953.488,749.398 965.78,724.771 967.28,721.471C967.28,721.471 923.6,717.6 923,718L908,718C903.3,719.7 862.798,711.185 863.198,707.685C863.198,707.685 862.588,717.179 863.236,721.421Z" stroke="#79736c" stroke-width="0.75" stroke-linecap="round" fill="#fde6b5" stroke-linejoin="round"/> <path d="M1435.33,574.82C1451.93,570.82 1748.39,392.79 1755.09,383.19C1749.49,381.29 1727.19,380.728 1727.19,380.728C1727.19,380.728 1445.66,553.351 1435.16,560.251C1435.29,563.774 1434.53,573.72 1435.33,574.82Z" stroke="#99959e" stroke-width="0.75" stroke-linecap="round" fill="#99959e" stroke-linejoin="round"/> <path d="M1219,519L1324.04,580.578C1331.34,581.478 1339.04,570.578 1339.04,570.578C1339.04,570.578 1229.6,506.7 1229,505L1227,505C1225.8,502.3 990.888,360.584 986.888,362.584C982.888,364.584 979.188,372.084 978.888,375.584C980.288,377.284 1217.5,517 1219,519Z" stroke="#bda090" stroke-width="0.75" stroke-linecap="round" fill="#bda090" stroke-linejoin="round"/> <path d="M1355,1440L1356,1440L1356,1390C1354.1,1403.2 1355.8,1423.8 1355,1440Z" stroke="#433d38" stroke-width="0.75" stroke-linecap="round" fill="#433d38" stroke-linejoin="round"/> <path d="M1310.78,266.669C1310.22,274.691 1343.88,1445.58 1343.88,1445.58L1369.07,1445.58L1387.26,1445.58L1440.44,1445.58L1441.84,1445.58L1458.64,1445.58C1458.64,1445.58 1432.96,275.392 1429.57,261.635C1429.57,261.635 1317.4,265.674 1310.78,266.669Z" stroke="#856c51" stroke-width="0.75" stroke-linecap="round" fill="#ae7c52" stroke-linejoin="round"/> <path d="M1376,1164C1381.2,1160.2 1380.2,1146.4 1376,1139C1376.7,1146.3 1375.1,1159.9 1376,1164Z" stroke="#bdc2c5" stroke-width="0.75" stroke-linecap="round" fill="#bdc2c5" stroke-linejoin="round"/> <path d="M1347,1095L1366,1095L1368,1094L1347,1094L1347,1095Z" stroke="#c9cbcb" stroke-width="0.75" stroke-linecap="round" fill="#c9cbcb" stroke-linejoin="round"/> <path d="M1285.43,983.57C1287.17,1008.56 1317.38,1027.92 1304.62,1054.51C1299.02,1062.81 1295.99,1061.4 1292.19,1073.4L1296.19,1072.4C1301.69,1062.2 1301.7,1080.5 1313,1078C1327.6,1080.4 1335.1,1075.8 1344,1073C1336.4,1072.7 1322.6,1073.1 1323,1061C1326,1054 1326.94,1038.65 1319.72,1021.71C1311.47,1002.37 1310.9,1008.41 1309.38,988.671C1307.58,989.471 1307.1,990.4 1305,989C1302.2,988.6 1300.4,984.5 1302,983L1301,983C1299,975.2 1305.2,975.831 1307.5,975.331C1306.6,971.931 1302.92,963.709 1302.92,963.709C1302.92,963.709 1283.69,958.583 1285.43,983.57Z" stroke="#a8bac0" stroke-width="0.75" stroke-linecap="round" fill="#a8bac0" stroke-linejoin="round"/> <path d="M1346.3,979.127C1325.03,979.383 1322.36,972.17 1313.31,973.971C1303.43,975.939 1299,974.751 1301.31,983.971C1302.21,987.576 1302.51,989.571 1305.31,989.971C1307.41,991.371 1335.08,985.071 1335.08,985.071C1344.25,981.741 1347.9,983.127 1346.3,979.127Z" stroke="#807d7f" stroke-width="0.75" stroke-linecap="round" fill="#807d7f" stroke-linejoin="round"/> <path d="M496.875,768.531C494.851,771.016 429.911,1078.43 527.906,1285.31C529.717,1285.11 911.844,1291.22 911.844,1291.22C911.844,1291.22 895.328,789.734 891.219,790.844C888.519,789.644 791.6,783.9 791,783C791,783 497.362,768.321 496.875,768.531Z" stroke="#ece8de" stroke-width="0.75" stroke-linecap="round" fill="#ece8de" stroke-linejoin="round"/> <path d="M584,789L597,789C598.2,787.1 588.6,789.3 584,788L584,789Z" stroke="#eceeeb" stroke-width="0.75" stroke-linecap="round" fill="#eceeeb" stroke-linejoin="round"/> <path d="M810,782L822,782C821.8,780.8 818.3,779.5 819,778L818,778L810,778L810,782Z" stroke="#e5e0d3" stroke-width="0.75" stroke-linecap="round" fill="#e5e0d3" stroke-linejoin="round"/> <path d="M757,780L789,780C789,778 780.3,780.2 779,779L758,779L757,779L757,780Z" stroke="#86967e" stroke-width="0.75" stroke-linecap="round" fill="#86967e" stroke-linejoin="round"/> <path d="M657.719,757.625L641.188,774.875C647.688,777.275 711,782 711,782L818.107,782.922L818.457,775.901L779.947,776.51L779.947,774.51L755,775C751,775.1 744.1,775.5 742,776L736,776L724,776L716,776C711.6,774.1 657.719,757.625 657.719,757.625ZM687.406,776.969C688.232,777.096 688.793,777.282 688,778C688.115,777.472 687.843,777.166 687.406,776.969Z" stroke="#828879" stroke-width="0.75" stroke-linecap="round" fill="#828879" stroke-linejoin="round"/> <path d="M878,758L883,758C884,756.6 879.2,750.5 877,755L878,758Z" stroke="#382121" stroke-width="0.75" stroke-linecap="round" fill="#382121" stroke-linejoin="round"/> <path d="M869,749C872.2,749.7 870.1,740.1 870,736C868,736 870.2,745.6 869,749Z" stroke="#4f3837" stroke-width="0.75" stroke-linecap="round" fill="#4f3837" stroke-linejoin="round"/> <path d="M780,718L783,718C787.8,717.3 785.2,709.5 791,710C785.4,704.6 781.5,697.2 778,689L776,690L775,694C779.5,697.4 779.7,704.2 779,711L779,716L780,718Z" stroke="#385f4f" stroke-width="0.75" stroke-linecap="round" fill="#385f4f" stroke-linejoin="round"/> <path d="M771,716L779,716L779,711C778.5,713.8 771.2,712.5 770,712L771,716Z" stroke="#2a5c30" stroke-width="0.75" stroke-linecap="round" fill="#2a5c30" stroke-linejoin="round"/> <path d="M767,712L770,712C771.2,712.5 778.5,713.8 779,711C779.7,704.2 779.5,697.4 775,694L770,694L770,691C766.8,692.1 762.5,694.3 759,693C757.6,695.4 761,698.5 762,702L762,703C766,702.6 765.1,710.9 767,712Z" stroke="#215825" stroke-width="0.75" stroke-linecap="round" fill="#215825" stroke-linejoin="round"/> <path d="M864,703C865.9,701.5 866.3,692.4 865,691L864,691L864,703Z" stroke="#acb138" stroke-width="0.75" stroke-linecap="round" fill="#acb138" stroke-linejoin="round"/> <path d="M848,702C851,703.1 849.5,695.1 849,691L849,684C847.2,685.6 849.4,697 848,702Z" stroke="#a6b554" stroke-width="0.75" stroke-linecap="round" fill="#a6b554" stroke-linejoin="round"/> <path d="M770,694L775,694L776,690C774.4,690.5 768.9,690.2 770,691L770,694Z" stroke="#1d4724" stroke-width="0.75" stroke-linecap="round" fill="#1d4724" stroke-linejoin="round"/> <path d="M759,693C762.5,694.3 766.8,692.1 770,691C768.9,690.2 774.4,690.5 776,690L778,689C777.3,685.9 771,683 771,676L770,676C771.3,672.9 767.9,671.1 768,669L768,644C767.3,644.3 764.1,642.2 763,642L762,646C761.7,657.9 763.6,674.7 761,682L761,684C761.7,686.5 758.6,688.3 759,689L759,693Z" stroke="#19291a" stroke-width="0.75" stroke-linecap="round" fill="#19291a" stroke-linejoin="round"/> <path d="M864,691L865,691C864.5,690.6 870.3,691.1 868,686L868,684L865,684L865,663L864,663L864,691Z" stroke="#c3ce6c" stroke-width="0.75" stroke-linecap="round" fill="#c3ce6c" stroke-linejoin="round"/> <path d="M757,689L759,689C759.3,686.9 762.3,685.1 761,684L759,684C758.5,669.7 762,650.6 757,639L755,642C757.7,653.1 757.7,670.7 755,681C755.1,683 756.7,687.2 757,689Z" stroke="#667a24" stroke-width="0.75" stroke-linecap="round" fill="#667a24" stroke-linejoin="round"/> <path d="M759,684L761,684L761,682C761.8,671.1 759.9,654.3 762,646L763,642C760.4,641.3 765.2,632.1 758,634C757.3,635.1 756.8,639.5 757,639C762,650.6 758.5,669.7 759,684Z" stroke="#42561b" stroke-width="0.75" stroke-linecap="round" fill="#42561b" stroke-linejoin="round"/> <path d="M761,682C763.6,674.7 761.7,657.9 762,646C759.9,654.3 761.8,671.1 761,682Z" stroke="#304218" stroke-width="0.75" stroke-linecap="round" fill="#304218" stroke-linejoin="round"/> <path d="M754,681L755,681C755.1,674.4 757.3,664.4 754,659L754,681Z" stroke="#95ab3b" stroke-width="0.75" stroke-linecap="round" fill="#95ab3b" stroke-linejoin="round"/> <path d="M755,681C757.7,670.7 757.7,653.1 755,642C753.1,641.8 755.4,649.3 754,648L754,659C757.3,664.4 755.1,674.4 755,681Z" stroke="#8ba034" stroke-width="0.75" stroke-linecap="round" fill="#8ba034" stroke-linejoin="round"/> <path d="M770,676L771,676C771.4,665.7 774,657.8 772,646L771,646L771,617L771,614C766.8,613.2 767.3,615.2 761,614C759.5,620.3 758.2,629.1 758,634C765.2,632.1 760.4,641.3 763,642C764.1,642.2 767.3,644.3 768,644C770.8,650.3 770.8,666.2 768,669C767.9,671.1 771.3,672.9 770,676Z" stroke="#263b2a" stroke-width="0.75" stroke-linecap="round" fill="#263b2a" stroke-linejoin="round"/> <path d="M768,669C770.8,666.2 770.8,650.3 768,644L768,669Z" stroke="#283e39" stroke-width="0.75" stroke-linecap="round" fill="#283e39" stroke-linejoin="round"/> <path d="M876.868,635.648C873.668,635.048 866.047,625.886 866.047,625.886C866.047,625.886 873.22,649.195 868.821,649.495L867.821,662.495C864.646,676.251 863.433,688.85 863.792,697.399C857.144,723.771 903.121,721.195 907.821,719.495L922.821,719.495C921.621,718.895 921.121,714.595 920.821,713.495C918.021,711.595 906.052,706.436 902.352,705.036C867.88,693.599 876.868,635.648 876.868,635.648Z" stroke="#4d5f59" stroke-width="0.75" stroke-linecap="round" fill="#4d5f59" stroke-linejoin="round"/> <path d="M843,650L844,648C843.3,645.9 847.5,637.3 842,638C844.8,640 842.7,646.5 843,650Z" stroke="#2e4f2e" stroke-width="0.75" stroke-linecap="round" fill="#2e4f2e" stroke-linejoin="round"/> <path d="M869.03,584.118L865.03,586.118C862.83,591.018 866.53,596.118 865.03,600.118C864.83,609.418 866.929,621.118 864.03,627.118C859.73,627.018 854.742,629.187 852.342,629.087C852.342,629.087 848.164,651.922 847.998,664.337L848.03,680.118L849.03,684.118L849.03,691.118C849.53,695.218 851.03,703.218 848.03,702.118C849.13,704.918 846.13,706.718 847.03,707.118C848.13,708.718 849.13,712.618 849.03,711.118L849.03,715.118C850.13,720.418 855.33,725.218 859.03,728.118L860.03,729.118L862.03,729.118C865.63,729.518 864.561,715.743 864.561,715.743C864.187,710.703 863.43,705.918 864.03,703.118L864.03,691.118L865.03,684.118L868.03,659.118C868.33,656.818 869.03,648.118 869.03,648.118C868.03,644.418 866.23,635.418 868.03,633.118C869.23,624.118 867.03,601.018 869.03,591.118L869.03,588.118L869.03,584.118Z" stroke="#a9be51" stroke-width="0.75" stroke-linecap="round" fill="#a9be51" stroke-linejoin="round"/> <path d="M771,646L772,646C772.1,639.2 774.2,624.6 771,617L771,646Z" stroke="#486e75" stroke-width="0.75" stroke-linecap="round" fill="#486e75" stroke-linejoin="round"/> <path d="M838.656,594.969C835.618,595.332 834.806,599.706 832.094,599.094C829.094,599.594 834.294,603.594 832.094,603.094C838.994,624.194 800.594,612.994 822.094,634.094C832.878,642.082 837.068,659.345 834.094,681C834.062,681.002 834.032,680.997 834,681L834,694C834.1,695.4 829.061,722.258 849,736C853.9,736.9 859.9,734.7 859,728C855.3,725.1 850.1,720.3 849,715C849,715 849.8,703.4 848,702C849.4,697 847.2,685.6 849,684C849,684 851.725,636.281 851.625,629.781C851.625,629.781 851.594,607.694 844.094,603.094C844.194,602.094 842.094,597.794 840.094,595.094C839.556,594.956 839.09,594.917 838.656,594.969ZM843.344,633.094C843.342,633.382 843.358,633.653 843.312,633.906C843.344,633.623 843.338,633.367 843.344,633.094Z" stroke="#456658" stroke-width="0.75" stroke-linecap="round" fill="#456658" stroke-linejoin="round"/> <path d="M761,614C767.3,615.2 766.8,613.2 771,614C773.3,615 773.7,608.8 778,609C776.4,606.1 772.9,601.3 774,596C772.7,598.3 766.3,598 766,599C763.3,602.4 759.5,610.9 761,614Z" stroke="#3b5535" stroke-width="0.75" stroke-linecap="round" fill="#3b5535" stroke-linejoin="round"/> <path d="M778,609C782.2,609.6 786.5,604.6 791,603C790.5,598.4 786.1,594.6 784,592C779.8,592.4 776.4,596.3 774,596C772.9,601.3 776.4,606.1 778,609Z" stroke="#2f4b35" stroke-width="0.75" stroke-linecap="round" fill="#2f4b35" stroke-linejoin="round"/> <path d="M791,603C794.6,602.3 796.2,599.5 800,599C804.4,591.9 825.1,598.5 823,587L805,587L805,586L802,586C795.6,586.8 787.6,589.6 784,592C786.1,594.6 790.5,598.4 791,603Z" stroke="#3d5f45" stroke-width="0.75" stroke-linecap="round" fill="#3d5f45" stroke-linejoin="round"/> <path d="M800,599C808.7,599.5 823.1,595.8 832,599C835.1,599.7 835.7,593.9 840,595C839.7,591.3 829.2,591.8 827,586L825,586L823,587C825.1,598.5 804.4,591.9 800,599Z" stroke="#4e7068" stroke-width="0.75" stroke-linecap="round" fill="#4e7068" stroke-linejoin="round"/> <path d="M805,587L823,587L825,586L805,586L805,587Z" stroke="#77925b" stroke-width="0.75" stroke-linecap="round" fill="#77925b" stroke-linejoin="round"/> <path d="M802,586L805,586L825,586C824.5,580.7 814,585.1 809,583C808.3,583.2 803.6,584.1 802,586Z" stroke="#97ae6c" stroke-width="0.75" stroke-linecap="round" fill="#97ae6c" stroke-linejoin="round"/> <path d="M862,586L865,586L869,584C869.4,584.5 871.4,581.3 872,579C865.6,579.2 862.8,577.8 859,582C859.6,582 862.4,584.4 862,586Z" stroke="#8ca385" stroke-width="0.75" stroke-linecap="round" fill="#8ca385" stroke-linejoin="round"/> <path d="M848,583C850.4,584.1 855.6,583.2 857,582C858.1,577.5 856.8,574.5 855,571C851.2,568.5 847.7,578.7 844,578C844.1,579.6 848.1,581.4 848,583Z" stroke="#344523" stroke-width="0.75" stroke-linecap="round" fill="#344523" stroke-linejoin="round"/> <path d="M870,574L874,574C876.5,574.4 877.8,570.9 878,571L878,565C875.7,561.6 870.6,560.8 866,563C863.9,566.9 868.3,571.4 870,574Z" stroke="#463b35" stroke-width="0.75" stroke-linecap="round" fill="#463b35" stroke-linejoin="round"/> <path d="M789,549C785.8,550.9 778.1,551.6 778,554C767.1,554.9 734.2,565.4 729,563C730.9,565.8 728.5,569.1 727,570C727,570 692.926,695.575 668.5,742.875L648.312,766.625C648.312,766.625 672.1,770.275 676.5,770.875C677.3,771.475 694.5,773.875 694.5,773.875C702.1,775.175 712.1,772.975 716.5,774.875L724.5,774.875L817.094,782.438C817.094,782.438 840.757,787.469 845.312,789.969C851.245,789.569 852.844,766.687 852.844,766.688L846.188,766C843.581,763.441 837.885,762.705 832.656,761.062C832.661,761.042 832.748,760.988 832.75,760.969C833,758.969 821.1,762.775 822.5,753.875L813.031,751.594C813.205,748.335 801.2,744.875 805.5,744.875C807.5,741.875 813.1,742.275 814.5,738.875C817,730.275 805.3,731.875 801.5,729.875C798.95,726.575 794.26,722.442 788.531,721.969C786.622,721.811 784.601,722.051 782.5,722.875C782.4,723.075 780.5,716.875 780.5,716.875L779.5,714.875L755.969,680.594L754.188,659.906L754.188,648.906C755.588,650.206 753.288,642.706 755.188,642.906L757.188,639.906C756.188,637.606 759.288,635.806 758.188,634.906C758.388,630.006 759.688,621.206 761.188,614.906C759.688,611.806 763.487,603.306 766.188,599.906L765.188,599.906C765.363,599.554 765.281,599.306 765.344,599L766,599C766.3,598 772.7,598.3 774,596C776.4,596.3 779.8,592.4 784,592C787.6,589.6 795.6,586.8 802,586C803.6,584.1 808.3,583.2 809,583C814,585.1 824.5,580.7 825,586L827,586C829.2,591.8 839.7,591.3 840,595C842,597.7 844.1,602 844,603C851.5,607.6 848.4,622.1 852,629L853,629C855.4,629.1 859.425,629.905 864,627C868.852,613.829 862.9,607.5 865,600C866.5,596 862.8,590.9 865,586L862,586C862.4,584.4 859.6,582 859,582L857,582C855.6,583.2 850.4,584.1 848,583C848.1,581.4 844.1,579.6 844,578L843,578C837.1,573.3 833.4,565.7 825,562L825,561L823,561L822,558L821,558C812.9,553.8 800.9,550.1 789,549ZM779.562,555.469C780.29,555.84 781.116,556.061 781.781,556.156C780.925,556.177 780.158,555.949 779.562,555.469ZM868.594,609.375C868.719,618.482 868.673,627.949 868,633C866.2,635.3 868,644.3 869,648C873.4,647.7 875.8,640 878,635C880,636.8 872.193,621.617 868.594,609.375ZM699.406,720C698.473,721.183 698.001,723 698,723C697.736,721.627 698.543,720.663 699.406,720ZM695,751C695.95,751.9 697.369,752.593 698.344,753.094C697.292,752.451 695.344,751.826 695,751ZM698.656,753.281C699.347,753.653 699.721,753.917 699,754C699.125,753.75 698.969,753.516 698.656,753.281Z" fill="#ffff00"/> <path d="M823,561L825,561C824,551.3 830.6,551.9 838,553C831.2,548.3 822.7,544.6 813,541C802.2,553.6 827.2,549.9 822,558L823,561Z" stroke="#3f5550" stroke-width="0.75" stroke-linecap="round" fill="#3f5550" stroke-linejoin="round"/> <path d="M889,539L899,539L899,537L898,533L894,535L890,533C887.6,533.1 889.8,540.1 889,539Z" stroke="#5c5d5b" stroke-width="0.75" stroke-linecap="round" fill="#5c5d5b" stroke-linejoin="round"/> <path d="M847.017,489.014C847.317,496.215 846.2,505 844,510L842,510C835.8,508.7 831.4,499.3 825,501C823.8,504.4 824.4,509.4 822,511C826.4,529.2 846.3,538.7 845,554C851.2,557.4 846.628,551.263 853.216,555.227C859.803,559.191 865.641,569.31 871.351,569.857C871.351,569.857 876.611,567.453 880.099,565.933C883.586,564.413 883.969,564.601 886.812,560.656C885.939,560.258 882.54,558.041 883.504,557.807C884.812,557.489 889.628,553.972 889.628,553.972C889.628,553.972 896.184,543.457 893.091,539.684C890.871,536.975 888.091,539.684 888.091,539.684C888.091,539.684 883.117,534.015 883.017,531.015C883.317,529.315 884.916,528.415 883.017,525.015C878.217,517.815 865.317,506.615 881.017,504.014C873.417,498.414 859.217,494.414 847.017,489.014Z" stroke="#a18176" stroke-width="0.75" stroke-linecap="round" fill="#a18176" stroke-linejoin="round"/> <path d="M819.621,507.635L822,511C824.4,509.4 823.8,504.4 825,501C827.1,495.8 825,494.5 826,489C818.5,481.7 816.501,497.538 816.501,497.538C816.501,497.538 821.266,503.097 819.621,507.635Z" stroke="#323030" stroke-width="0.75" stroke-linecap="round" fill="#323030" stroke-linejoin="round"/> <path d="M842,510L844,510C846.2,505 849.3,501.2 849,494C841.6,494.1 833.8,487.4 826,489C825,494.5 827.1,495.8 825,501C831.4,499.3 835.8,508.7 842,510Z" stroke="#6e594e" stroke-width="0.75" stroke-linecap="round" fill="#6e594e" stroke-linejoin="round"/> <path d="M1479.3,1066.78C1479.3,1066.78 1291.64,1065.22 1290.09,1068.09C1290.19,1072.49 1288.78,1298.82 1291.03,1327.34C1291.03,1327.34 1483.34,1330.92 1485.34,1326.02C1487.84,1310.82 1477.51,1066.73 1479.3,1066.78Z" stroke="#b8beb6" stroke-width="0.75" stroke-linecap="round" fill="#b8beb6" stroke-linejoin="round"/> <path d="M888.789,726.992C884.935,727.792 881.791,732.092 878.646,731.992C876.11,731.292 875.197,735.592 875.603,735.992C875.501,737.092 879.559,738.892 878.646,740.992L880.674,740.992C882.5,741.792 883.413,745.792 882.703,744.992C883.301,745.234 882.96,745.278 882.703,744.992C884.687,750.692 889.24,758.392 887.109,761.992C885.42,764.192 887.256,765.492 887.109,765.992C888.725,766.992 885.605,772.036 883.107,771.736C883.107,771.736 889.954,774.898 895.778,771.467C901.961,767.824 907.811,766.403 916.308,759.885C924.805,753.368 924.593,747.773 922.206,746.773C919.818,745.773 894.67,744.123 892.466,747.523C891.672,746.525 889.985,747.77 888.25,744.304C884.103,736.018 897.817,736.092 891.833,728.992C892.543,728.192 888.485,727.392 888.789,726.992Z" fill="#c09059"/> <path d="M870.312,734.719C868.037,734.731 866,735 866,735C865.5,740.6 864.6,746.6 860,749C858.2,752.4 854.7,754.2 849,754L845,754C843.6,751.1 843.9,747 835,746C836.9,738.5 822.9,740.8 814,740C812.6,743.4 808.543,739.881 806.543,742.881C802.243,742.881 807.701,753.511 812.001,753.811L822,755C820.6,763.9 831.3,759.3 834,762C839,763.7 848,767 848,767C848,767 864.109,773.422 872,774C879.891,774.578 885.562,774.313 887.562,772.312C889.562,770.312 887.7,766.2 889,766C886.7,764.5 889.2,763.2 889,762C891.9,758.4 885.7,750.7 883,745C883,744.4 882.1,740.6 881,741C881,741 875.9,737.1 876,736C875.1,734.95 872.588,734.706 870.312,734.719Z" stroke="#252334" stroke-width="0.75" stroke-linecap="round" fill="#252334" stroke-linejoin="round"/> <path d="M824.469,597.719C816.256,597.386 806.525,599.375 800,599C796.2,599.5 794.6,602.3 791,603C786.5,604.6 782.2,609.6 778,609C773.7,608.8 773.3,615 771,614L771,617C774.2,624.6 772.1,639.2 772,646C774,657.8 771.4,665.7 771,676C771,683 777.3,685.9 778,689C781.5,697.2 785.4,704.6 791,710C785.2,709.5 785.987,715.706 781.188,716.406C779.787,717.006 787.5,727.781 795.5,731.781C803.5,735.781 802.383,744.735 805.094,746.031C813.994,746.831 836.9,738.5 835,746C843.9,747 843.6,751.1 845,754L849,754C854.7,754.2 858.2,752.4 860,749C864.6,746.6 865.5,740.6 866,735C866.4,732.8 862.687,729.832 862.687,729.832L858.599,728.509C859.499,735.209 853.9,736.9 849,736C844.3,732.2 836,719 836,719C836,719 834.1,695.4 834,694L834,681C837,659.3 832.8,642 822,634C800.5,612.9 838.9,624.1 832,603C831.3,602.1 831.3,598.3 832,599C829.775,598.2 827.206,597.83 824.469,597.719Z" stroke="#4f767e" stroke-width="0.75" stroke-linecap="round" fill="#4f767e" stroke-linejoin="round"/> <path d="M520.969,781.812C495.092,781.482 482.988,788.963 478.438,797.625C455.018,861.75 475.615,922.73 476.438,945C461.029,946.786 106.374,934.523 40.0312,932.219C40.9649,948.891 41.7878,965.877 42.5,983.125C156.126,987.408 421.463,1022.86 495.062,1266.62C498.9,1279.33 503.281,1286.8 513.844,1287.53C591.76,1292.9 890.005,1296.12 913.062,1296.19C912.909,1294.49 911.567,1266.23 914.156,1265.75C914.156,1265.75 540.594,1259.27 538.875,1259.47C534.527,1254.41 532.824,1243.48 531.812,1235.19L530.781,1235.19C524.916,1232.36 508.956,1238.65 509.562,1227.12C505.72,1222.47 496.924,993.026 502.688,968.656C526.595,950.125 507.692,930.556 505.969,930.625C479.208,923.997 481.049,850.575 493.25,816.625C505.224,783.308 536.696,800.689 536.781,810.156C536.791,811.225 896.906,827.344 896.906,827.344L894.531,801.562C894.531,801.562 771,797.125 771,797.125C751.7,796.025 568.923,785.688 532.906,782.438C528.629,782.051 524.665,781.86 520.969,781.812ZM285.219,1039.44C285.308,1039.64 285.656,1039.83 286.062,1040C285.439,1039.79 284.884,1039.6 285.219,1039.44ZM278.094,1060.34C278.004,1060.38 277.976,1060.44 277.875,1060.47C277.971,1060.44 278.012,1060.38 278.094,1060.34Z" stroke="#f0f0ec" stroke-width="0.75" stroke-linecap="round" fill="#c7c5c7" stroke-linejoin="round"/> <path d="M889.763,541.155L894.763,541.155C895.563,541.155 897.563,537.955 897.763,536.155C897.763,536.155 887.863,529.755 888.763,530.155L888.763,529.155L887.763,529.155C887.563,528.255 846.145,495.706 846.145,495.706C846.145,495.706 846.445,500.006 846.145,501.706C846.245,504.706 886.163,541.355 889.763,541.155Z" stroke="#6a645f" stroke-width="0.75" stroke-linecap="round" fill="#6a645f" stroke-linejoin="round"/> <path d="M892.217,538.701L893.217,538.701C891.917,534.501 888.1,519 898,520L898,518C895.1,513.6 886.422,505.008 880.522,502.108C864.822,504.708 842.674,492.6 847.474,499.8C848.674,500.7 892.217,538.701 892.217,538.701Z" stroke="#4d423a" stroke-width="0.75" stroke-linecap="round" fill="#4d423a" stroke-linejoin="round"/> <path d="M895.368,540.082L899.368,538.082C900.068,535.782 901.4,523.8 898,520C888.1,519 890.068,532.882 891.368,537.082C891.368,537.082 890.368,537.332 891.368,538.082C892.368,538.832 895.368,540.082 895.368,540.082Z" stroke="#3b3b37" stroke-width="0.75" stroke-linecap="round" fill="#3b3b37" stroke-linejoin="round"/> <path d="M831.269,461.247C825.693,469.987 814.219,477.768 819.219,489.068C827.619,491.268 836.519,491.968 841.219,496.068L842.219,496.068C842.378,495.601 842.609,495.182 842.782,494.725C858.912,500.693 914.687,529.582 927.405,535.986C932.705,532.686 907.677,514.103 910.077,506.603C928.66,441.316 837.353,451.71 831.269,461.247Z" fill="#ffea00"/> <path d="M857,582L859,582C862.8,577.8 865.6,579.2 872,579C871.1,578.4 875.7,577.7 874,574L870,574C868.3,571.4 874.518,567.711 868.989,562.237C863.459,556.763 850.549,551.494 850.549,551.494L843,556C843.9,564.5 854.4,565.6 855,571C856.8,574.5 858.1,577.5 857,582Z" stroke="#555f40" stroke-width="0.75" stroke-linecap="round" fill="#555f40" stroke-linejoin="round"/> <path d="M729.862,538.202C706.612,551.202 728.8,561.4 729,563C734.2,565.4 752.477,568.27 778,554C778.1,551.6 785.8,550.9 789,549C800.9,550.1 810.525,556.671 825,561C825,561 837.1,573.3 843,578L844,578C847.7,578.7 849.229,578.45 855,571C847.785,537.909 845.112,517.258 822,511C803.285,505.933 753.112,525.202 729.862,538.202Z" stroke="#466c6c" stroke-width="0.75" stroke-linecap="round" fill="#466c6c" stroke-linejoin="round"/> </g> <g id="layer1"> <path d="M1611.88,-47.4688C1711.23,107.514 1896.5,312.52 1912.97,338.844C1915.94,343.59 1956.57,342.284 1941.62,327.375C1919.02,304.823 1699.13,22.6703 1646.47,-44.9688C1632.66,-45.9774 1624.21,-46.5766 1611.88,-47.4688Z" stroke="#bae6f6" stroke-width="0.109292" stroke-linecap="round" fill="#000046" stroke-linejoin="round"/> <path d="M383.938,-48.1875C374.682,-47.4607 370.929,-47.1603 362.531,-46.5C366.707,-34.7202 370.745,-22.3812 371.969,-13.125C378.905,39.3473 804.953,337.585 813.562,343.594C815.846,345.187 846.258,345.782 849.219,343.156C853.473,339.384 484.151,85.5653 399.281,-28.1875C392.96,-36.6606 388.811,-41.8771 383.938,-48.1875Z" stroke="#bae6f6" stroke-width="0.109292" stroke-linecap="round" fill="#000046" stroke-linejoin="round"/> <path d="M689.865,304.728L696.228,392.05L1965.11,385.365L1961.28,288.929L689.865,304.728Z" stroke="#856c51" stroke-width="0.75" stroke-linecap="round" fill="#d6903f" stroke-linejoin="round"/> <path d="M516.201,804.748C512.256,804.943 508.392,806.316 505.137,808.718C500.385,812.224 497.937,817.205 497.425,822.325C497.037,826.207 496.1,828.776 499.785,833.847C503.47,838.919 506.172,840.92 512.165,842.611C518.159,844.301 522.853,842.572 525.341,841.196C530.239,836.964 533.322,835.196 535.164,829.76C535.841,827.763 536.177,825.696 536.19,823.654C536.229,817.529 533.328,811.566 527.743,807.893C524.165,805.54 520.145,804.553 516.201,804.748ZM502.885,820.072C502.578,820.971 502.434,821.891 502.276,822.797C502.407,821.876 502.583,820.958 502.885,820.072Z" stroke="#919087" stroke-width="0.75" stroke-linecap="round" fill="#919087" stroke-linejoin="round"/> <path d="M483.949,928.805C479.467,929.025 475.077,930.575 471.379,933.284C465.979,937.239 463.198,942.858 462.616,948.635C462.175,953.014 461.11,955.912 465.297,961.633C469.484,967.354 472.554,969.612 479.364,971.519C486.173,973.426 491.507,971.475 494.334,969.923C499.899,965.149 503.402,963.154 505.495,957.022C506.264,954.769 506.646,952.437 506.661,950.134C506.705,943.224 503.408,936.497 497.063,932.354C492.998,929.699 488.431,928.586 483.949,928.805ZM468.819,946.093C468.471,947.107 468.307,948.145 468.127,949.167C468.276,948.127 468.476,947.092 468.819,946.093Z" stroke="#919087" stroke-width="0.75" stroke-linecap="round" fill="#919087" stroke-linejoin="round"/> <path d="M484.944,939.05C482.226,939.179 479.564,940.088 477.322,941.676C474.048,943.995 472.362,947.29 472.009,950.677C471.741,953.245 471.096,954.945 473.634,958.299C476.173,961.654 478.034,962.978 482.163,964.096C486.292,965.214 489.526,964.07 491.241,963.16C494.615,960.361 496.739,959.191 498.008,955.595C498.474,954.274 498.706,952.907 498.715,951.556C498.741,947.505 496.743,943.56 492.895,941.131C490.43,939.574 487.661,938.921 484.944,939.05Z" stroke="#919087" stroke-width="0.75" stroke-linecap="round" fill="#000000" stroke-linejoin="round"/> <path d="M516.97,810.201C514.252,810.33 511.59,811.239 509.348,812.827C506.074,815.147 504.388,818.441 504.035,821.829C503.767,824.396 503.122,826.096 505.66,829.45C508.199,832.805 510.06,834.129 514.189,835.247C518.318,836.366 521.552,835.221 523.267,834.312C526.641,831.512 528.765,830.343 530.034,826.747C530.5,825.426 530.732,824.058 530.741,822.708C530.767,818.656 528.769,814.712 524.921,812.282C522.456,810.725 519.687,810.072 516.97,810.201Z" stroke="#919087" stroke-width="0.75" stroke-linecap="round" fill="#000000" stroke-linejoin="round"/> <path d="M534.145,1231.58C529.718,1231.79 525.382,1233.29 521.73,1235.91C516.397,1239.73 513.65,1245.16 513.076,1250.75C512.64,1254.98 511.589,1257.78 515.724,1263.31C519.859,1268.84 522.891,1271.02 529.616,1272.87C536.342,1274.71 541.609,1272.82 544.402,1271.32C549.898,1266.71 553.358,1264.78 555.425,1258.85C556.184,1256.67 556.562,1254.42 556.576,1252.19C556.619,1245.51 553.364,1239.01 547.097,1235.01C543.082,1232.44 538.571,1231.36 534.145,1231.58ZM519.202,1248.29C518.858,1249.27 518.696,1250.27 518.519,1251.26C518.665,1250.25 518.864,1249.25 519.202,1248.29Z" stroke="#919087" stroke-width="0.75" stroke-linecap="round" fill="#919087" stroke-linejoin="round"/> <path d="M535.008,1237.52C531.958,1237.66 528.971,1238.66 526.455,1240.39C522.781,1242.92 520.888,1246.51 520.493,1250.2C520.193,1253 519.468,1254.86 522.317,1258.52C525.166,1262.17 527.254,1263.62 531.888,1264.84C536.521,1266.06 540.15,1264.81 542.074,1263.82C545.86,1260.76 548.244,1259.49 549.668,1255.57C550.191,1254.13 550.451,1252.63 550.461,1251.16C550.491,1246.74 548.248,1242.44 543.931,1239.79C541.165,1238.1 538.057,1237.38 535.008,1237.52Z" stroke="#919087" stroke-width="0.75" stroke-linecap="round" fill="#000000" stroke-linejoin="round"/> </g> </svg>