<?xml version='1.0' encoding='utf-8'?>
<svg xmlns="http://www.w3.org/2000/svg" version="1.1" width="600px" height="976px" viewBox="0 0 600 976"> <g id="layer1"> <g style="fill:rgb(218,213,206); fill-opacity:1.0; stroke-linejoin: miter"> <path d="M197.30533,173.74615L198.11389,431.31512L334.00482,430.91956L397.81348,430.70184L396.98022,173.16484L197.6474,173.74515"/> </g> <g style="fill:rgb(218,213,206); fill-opacity:1.0; stroke-linejoin: miter"> <path d="M225.2169,362.95007L225.77974,491.04617L369.90186,490.6266L369.53235,362.61508L225.22316,362.95007"/> </g> <g style="fill:rgb(255,159,0); fill-opacity:1.0; stroke-linejoin: miter"> <path d="M298.3698,-118.3217Q223.36008,-117.58307,169.83798,-65.8078Q117.13791,-12.157082,115.98767,62.601753Q116.338524,105.03126,133.33528,140.77882L133.33394,140.77882L197.39658,341.0093L396.71686,340.82513L463.8456,136.31483L463.84097,136.31483Q478.28616,103.37466,479.1311,64.42519Q478.72223,-10.325851,426.62643,-64.464676Q373.72437,-116.74601,298.744,-118.31966L298.3698,-118.3217 Z"/> </g> <g> <g style="fill:rgb(255,226,0); fill-opacity:1.0; stroke-linejoin: miter"> <path d="M260.472,2.0551336L260.2048,62.37337L199.8867,62.106247L199.57597,132.25899L259.89413,132.52612L259.62695,192.84433L329.124,193.15208L329.39117,132.83386L389.70926,133.101L390.01993,62.94832L329.70184,62.681183L329.96906,2.3629053L260.472,2.0551336 Z"/> </g> </g> <g style="fill:rgb(0,0,0); fill-opacity:0.03529412; stroke-linejoin: miter"> <path d="M298.3698,-118.3217Q295.15186,-118.290016,291.97348,-118.1644L291.97638,-118.1644L287.90445,490.8653L369.90186,490.6266L369.72916,430.79767L397.81348,430.70184L397.51483,338.3941L463.8456,136.31483L463.84097,136.31483Q478.28616,103.37466,479.1311,64.42519Q478.72223,-10.325851,426.62643,-64.464676Q373.72437,-116.74601,298.744,-118.31966L298.3698,-118.3217 Z"/> </g> <g style="fill:rgb(255,255,255); fill-opacity:0.09411765; stroke-linejoin: miter"> <path d="M188.38507,-81.73146Q178.80965,-74.48665,169.83798,-65.8078Q117.13791,-12.157082,115.98767,62.601753Q116.338524,105.03126,133.33528,140.77882L133.33394,140.77882L197.39658,341.0093L197.8304,341.0089L197.84671,346.20282L197.84677,346.20282Q227.2569,342.695,236.68867,264.5778Q244.99884,182.61722,226.56718,70.783936Q212.41808,-11.556671,188.38696,-81.73146 Z"/> </g> </g> </svg>