<?xml version="1.0" encoding="UTF-8"?>
<svg viewBox="0 0 426.79242 393.76669" xmlns="http://www.w3.org/2000/svg">
 <defs>
  <linearGradient id="a" x1="312.14" x2="347.53" y1="260.83" y2="262.29" gradientUnits="userSpaceOnUse">
   <stop stop-color="#f4eed7" offset="0"/>
   <stop stop-color="#24221c" offset="1"/>
  </linearGradient>
 </defs>
 <g transform="translate(-80.907 -86.921)">
  <path d="m422.23 104.88c18.059 17.558 42.804 41.588 69.906 67.844v117.69l-41.875 30.531-101.78 142.22-79.005 3.8583-78.819-363.79z" fill="#aca793"/>
  <path d="m120.11 104.97 211.53 9.8125-1.4062 0.96875 8.125 0.15625s-11.009 13.781-9.9062 19.844 0 19.281 0 19.281-2.2015 8.2646-4.4062 4.4062-5.5312-29.219-5.5312-29.219l-2.6875-3.3125c-8.1331 7.0928-16.806 16.323-19.031 24.844-1.5551 5.9533 14.681 82.645 18.875 82.094s24.611 9.3944 23.562 14.906-2.6213 87.61 4.7188 91.469 12.59-0.55388 14.688-1.6562-4.1804-10.448 1.0625-17.062 14.688-13.25 14.688-13.25-8.9375 16.548-8.9375 20.406 16.264 30.329 17.312 34.188c0.71254 2.6218 3.7232 21.875 5.9688 36.5l-33.219 44.5-5.0625 19.312-182.78-7zm240.09 16.688 52.25 0.78125s-6.2328 21.042-12.469 25.719c-3.4866 2.615-7.6659 18.596-17.906 10.75 2.1702-2.9261 4.0753-6.0826 4.6562-8.4062 1.559-6.236-12.476-13.274-15.594-10.156s-7.8125 14.812-7.8125 14.812z" fill="#7f7d72"/>
  <path d="m237.5 115.35s-49.055 55.118-49.055 62.835 3.3071 36.378 3.3071 36.378l12.677-14.331 4.9607 7.1654s-22.047 13.78-24.803 24.252 3.3071 90.394 10.473 93.701 10.473-11.024 10.473-11.024l13.78-15.984s-8.2678 13.78-8.819 18.189-9.9213 44.095-3.3071 46.851 11.575-12.126 11.575-12.126l4.4095 9.3701s72.756 52.363 77.166 50.158 18.189-14.882 18.189-14.882l2.2047 3.8583s-8.819 9.9213-4.9607 13.228 31.418 4.4095 31.418 4.4095l3.8583-10.473 24.252 6.6142-19.843 47.402-215.52 4.9215s-8.7714-20.018-11.6-58.893c-1.9552-26.875 2.9995-70.088-1.0149-91.923-4.1594-22.623-19.667-63.857-21.27-89.585-2.5564-41.039-12.885-122.56-12.885-122.56l136.62-0.22831z" fill="#57564e"/>
  <path transform="matrix(-1 0 0 1 588.61 0)" d="m323.78125,148.90625c-1.7032-.0151-3.57265.30118-5.46875,1v-.0312c-.0732.0194-.14551.0726-.21875.0937-.13729.0531-.26893.0672-.40625.125l.0312.0625c-1.50641.49788-2.97591,1.38551-4.34375,2.59375-18.51666,4.12809-28.32883,15.61308-32.84375,26.375-.69632-.52198-1.36115-.89711-2.15625-1.375-1.33254-.80091-2.86906-1.62632-4.34375-2.40625-2.1233-1.12296-3.13039-1.61875-4.09375-2.09375l-.375-.875a4.85418,4.85418 0 0,0 -4.59375-2.90625l-9.0937.28125a4.85418,4.85418 0 0,0 -4.5,3.46875c-.14528.49556-.30558,1.11182-.46875,1.6875-2.83323,3.28484-4.96875,8.86717-4.96875,18.71875 0,6.99961.57057,11.50505 1.75,14.875 .44745,1.27848 1.1382,2.42553 1.90625,3.4375l-4.4375,2.0625a4.85418,4.85418 0 0,0 -2.6875,3.375l-.84375,3.875a4.85418,4.85418 0 0,0 6.1875,5.65625c0,0 15.8052-4.86836 33.5625-8.84375 1.64571,7.45761 3.5014,15.83941 4.375,19.625 .51994,2.25307.30225,7.14029-.28125,11.09375s-1.375,7.03125-1.375,7.03125a4.85418,4.85418 0 0,0 5.15625,6.03125l1.46875-.125 .78125,5.46875-1.90625.84375a4.85418,4.85418 0 0,0 -1.96875,7.34375c-1.27999-.39681-1.89428-.59797-3.1875-1-2.92311-.90871-5.72736-1.78998-7.84375-2.46875-1.00757-.32315-1.83046-.57513-2.4375-.78125l-.0625-.0937c-.44117-.65189-1.04263-1.59214-1.65625-2.5625s-1.25679-1.95937-1.875-2.84375c-.3091-.44219-.58921-.86893-.96875-1.3125s-.37423-.98094-2.375-1.78125c-1.37157-.5486-3.77056-1.88845-7.90625-1.5625-1.39432.10986-3.94129.69501-5.25,3.3125-.0757.15133-.0905.26025-.15625.40625-.26454-.15631-.54127-.30783-.8125-.46875-.62431-.58435-1.24963-1.15279-1.9375-1.65625-.29983-.21945-.5878-.42935-.875-.65625 .0725-.35923.1561-.64189.21875-1.03125 .16863-1.04807.35644-2.11728.1875-3.59375-.0845-.73824-.22067-1.63172-.90625-2.75s-2.29467-2.37707-3.90625-2.625c-.89605-.13766-1.53749-.0635-1.90625-.0312-3.86363.33842-6.1875,2.15625-6.1875,2.15625a4.85418,4.85418 0 0,0 -.84375.625c-.65027-.37809-1.19676-.72631-1.625-.96875-.4598-.26031-.50609-.32563-1.25-.65625 1.59629.70946.0131-.25854-1.28125-1.8125s-3.06339-3.6567-5.9375-5.09375c-.56523-.28261-5.2099-2.82916-10.9375-6.03125-4.48426-2.50698-9.98229-5.60156-15.3125-8.59375a4.85418,4.85418 0 0,0 -.375-3.65625l-.1875-.34385c1.96521-3.95499 6.59182-11.29175 11.59375-18.1875 2.80424-3.86597 5.63759-7.53689 7.96875-10.375s4.68835-5.11434 4.4375-4.9375c1.81923-1.28248 2.79583-4.05385 2.5625-5.875s-.95711-3.01353-1.75-4.03125c-1.58577-2.03544-3.58522-3.56972-6.59375-4.15625-2.18658-.4262-3.21899.21354-4.09375.65625-.88968.45018-1.55411.92061-2.25,1.4375-6.17937,4.59008-16.28198,15.67339-23.6875,24.71875-.27536.33644-.70224.80091-1.1875,1.40625-2.06623,2.57658-3.79338,4.89954-5.0625,6.875-.29955.46627-.49875.90176-.75,1.34375a4.85418,4.85418 0 0,0 -2.96875,2.1875l-.21875.34375a4.85418,4.85418 0 0,0 -3.4375-.125c-3.49698,1.19777-6.19509,3.56206-7.5625,6.125-.10895.20401-.18714.34138-.21875.40625-.11389.23268-.1644.40646-.21875.53125a4.85418,4.85418 0 0,0 -.0312,0c.17677-.40931.0905-.17114-.0625.1875-.0223.0523.0288-.0377 0,.0312-.0123.0295-.0178-.0326-.0312,0-.17759.43071-.30693.81697-.40625,1.125a4.85418,4.85418 0 0,0 0,.0312c-.19307.60279-.17965.64031-.0312.15625-.16001.51581-.25399.91376-.3125,1.15625-.38065,1.60796-.55102,3.01407-.75,4.125a4.85418,4.85418 0 0,0 2.3125,5.03125l.96875.5625 .125.5c-1.7569,3.92275-3.39986,8.21271-4.875,12.78125-.003.01.003.0217 0,.0312-.005.014.004.0174 0,.0312h-.0312c-.003.009.003.0219 0,.0312-.82474,2.55883-1.63475,5.18903-2.375,7.84375-.009.032-.0223.0618-.0312.0937a4.85418,4.85418 0 0,0 0,.0312c-.74751,2.68792-1.42513,5.37139-2.0625,8a4.85418,4.85418 0 0,0 0,.0312 4.85418,4.85418 0 0,0 0,.0625l-.0312.125c-.6196,2.56383-1.20722,5.10207-1.71875,7.53125a4.85418,4.85418 0 0,0 0,.0312 4.85418,4.85418 0 0,0 0,.0312l-.0312.15625c-1.02392,4.88529-1.83555,9.40126-2.34375,13.0625-.25512,1.83691-.45315,3.45107-.5625,4.90625-.21202,2.82154.34299,5.35499.90625,7.6875 .28163,1.16626.49408,2.05673 1.0625,3.25 .14211.29832.2891.63949.6875,1.15625s1.04638,1.68822 3.5,1.9375c1.22681.12464 2.66797-.35231 3.5-1s1.21037-1.29383 1.4375-1.75c.45425-.91235.47368-1.34371.53125-1.75 1.07814-7.60933 8.10643-36.06744 14.5-47.59375 .64952-1.17095 1.25242-2.13042 1.8125-2.875 .0393-.0524.0535-.0818.0625-.0937 .33584-.43924.54439-.62386.75-.84375l.5625.21875a4.85418,4.85418 0 0,0 5.5-1.34375l35.9375,21.125c-.0892.61564-.20036,1.21082-.1875,1.875a4.85418,4.85418 0 0,0 0,.0312c-.006-.23168-.0104-.19771 0,.125a4.85418,4.85418 0 0,0 0,.0312c.0369.95802.24617,1.82651.5,2.53125 .00061.002-.00071.0292 0,.0312 .0304.0889.14698.50616.5,1.125 1.12103,1.96514 1.96143,2.40969 3.0625,3.3125 .55054.4514 1.10739.88204 1.75,1.28125 .36464.22653.73355.46753 1.25.6875 .31304.4733.85486,1.1618 2.34375,1.90625 1.20101.60051 1.92494.78365 2.84375,1.09375 .68287.23047 1.00912.31946 1.28125.40625 .028.009.10462.056.125.0625l2.5,1.0625c.32377.81367.78861,1.40293 1.15625,1.875 .70701.90783 1.43444,1.55032 2.1875,2.125s1.49583,1.05443 2.40625,1.46875c.37036.16855.82221.33533 1.34375.46875 .23384.23182.39119.37883.71875.71875 .56265.58387 1.22161,1.23791 1.96875,1.90625s1.26591,1.51179 3.46875,2.0625c1.03453.25863 2.81086.62588 4.84375.8125 1.01644.0933 2.07765.13685 3.25.0312s2.52242-.21994 4.1875-1.46875c.41715-.31287.43937-.49708.6875-.75l5.0625,3a4.85418,4.85418 0 0,0 4.46875.21875c2.03056-.92264 3.88755-2.1902 5.3125-3.875 .10896-.1289.17859-.27382.28125-.40625 2.29542,1.40207 5.07701,3.14788 6.40625,3.8125 .94698.47349 3.50891,1.72173 5.8125,2.84375l1.15625,10.0625 1.1875,10.28125 3.65625,31.46875-2.15625,4.625a4.85418,4.85418 0 0,0 .125,4.34375l-2.6875,8.34375a4.85418,4.85418 0 0,0 4.375,6.3125l1.125.0625c.30228,4.15776.66547,9.05028 1.03125,14.65625 .23632,3.62192.43559,7.052.5625,9.65625 .0634,1.30212.10882,2.38852.125,3.15625 .007.32761-.0397.66845-.0625.90625-.11228.37208-.49466,1.54424-.9375,2.625-.49628,1.21119-.9375,2.1875-.9375,2.1875a4.85418,4.85418 0 0,0 1.28125,5.75c0,0 .64131.61413 1.09375,1.03125-.41849.33396-.80373.57518-1.28125,1.09375-.82918.90045-1.9375,2.41626-1.9375,4.6875 0,.29901.054.84845.0625,1.25-3.75143.87647-7.60688,1.76409-11.1875,2.71875-2.51989.67185-4.8499,1.33138-6.78125,1.96875s-3.22476.96671-4.96875,2.1875c-2.16941,1.51859-3.27316,3.77679-3.75,5.71875s-.46938,3.74035-.34375,5.3125c.25126,3.14431 1.09375,5.6875 1.09375,5.6875a4.85418,4.85418 0 0,0 4.53125,3.375l82.21875,1.5625a4.85418,4.85418 0 0,0 4.9375-5.15625l-1.1566-17.93685a4.85418,4.85418 0 0,0 -.4375-1.6875c-.0263-4.95604-.0548-10.93341-.15625-16.5-.11333-6.22028-.12762-10.89071-.625-13.875-.0788-.47285-.22616-4.81987-.15625-9.21875 .0449-2.82643.15357-5.53908.25-8.3125a4.85418,4.85418 0 0,0 3.4375-5.375c0,0-.49927-3.43476-1.28125-6.96875-.39099-1.76699-.8351-3.52084-1.4375-5.15625-.3012-.8177-.61339-1.6175-1.21875-2.53125-.15725-.23736-.52527-.56225-.78125-.875-.3569-4.64179-.8992-11.71762-1.40625-19.1875-.28821-4.24584-.5559-8.33022-.71875-11.5s-.11564-6.17799-.1875-5.53125c.15517-1.39654 1.26696-9.53991 2.25-17.875s1.96177-16.46236 1.6875-21.125c-.28993-4.92876.17297-19.75107.3125-23.9375l5.21875-2.625a4.85418,4.85418 0 0,0 1.34375-7.65625l-7.34375-7.84375 2.15625.0625a4.85418,4.85418 0 0,0 2.46875-9.09375l-4.0625-2.25 .15625-.5 .6875.15625a4.85418,4.85418 0 0,0 5.34375-7.125l-1.53125-2.6875 5.40625-13.5a4.85418,4.85418 0 0,0 -1.65625-5.75c.0001-.85106.0139-1.67662-.0312-2.71875-.12156-2.80323-.56755-6.18698-1.40625-9.90625-1.62557-7.20871-4.80852-15.67246-10.59375-22.9375-1.09739-3.24644-2.5447-6.31199-4.78125-8.875-.77382-.88648-.96924-.96679-.5-.5 .73169.72879.82963,1.12567.8125,1.09375-.0147-.0274-.31048-.48372-.84375-1.0625-.0442-.0479-.0123-.0428-.0625-.0937l.0312-.0312c-.017-.0171-.0746-.0433-.0937-.0625-.1556-.15561-.35075-.37866-.65625-.625-.0624-.0504-.013.007-.0625-.0312-.17566-.13722-.17617-.15291-.1875-.15625-.0595-.0393-.0563-.0485-.125-.0937a4.85418,4.85418 0 0,0 -.06255-.03145c-.0944-.0638-.0466-.0507-.15625-.125v.0312c-.0158-.0111-.0156-.0205-.0312-.0312-.57639-.39765-1.06974-.69583-1.34375-.84375-.009-.005-.0223.005-.0312,0 .39199.21262-.20175-.10053-.0625-.0312 .31332.15588.85095.41563-.125-.0937v.0312c-6.80047-3.93654-13.05068-3.0655-16.5-3.125h-.125-.0312c-.53119-.0122-1.0588-.027-1.5625-.0312-.52945-.0515-1.05411-.0969-1.4375-.125a4.85418,4.85418 0 0,0 -.0937,0c-.40897-.0221-.27301-.007-.21875,0h-.0937c-.097-.006-.18567-.026-.28125-.0312-1.82182-1.00813-4.50026-2.18557-8.25-2.21875zm30.53125,6.71875c.11907.0787.16748.13263.25.1875 .45869.305.40968.25633-.25-.1875zm-70.15625,136.4375c-.11727.40445-.26232.85287-.28125.90625 .004-.01-.004-.0214 0-.0312 .0616-.16647.17007-.498.28125-.875zm-32.1875.75c-.69147.34574-1.25209.45887-1.78125.5 .52053-.053 1.05466-.1367 1.78125-.5zm53.0625,126.28125c.0666.0855.22178.26935.25.3125 .0532.0813-.13038.0302-.25-.3125z" fill="url(#a)"/>
  <path d="m272.91 426.04s31.569 6.6257 35.467 9.3539 1.1692 11.303 1.1692 11.303l-82.237 1.559 1.1692-17.928z" fill="#28170b"/>
  <path d="m283.05 367.97s-2.7282 36.636-2.3385 38.585 2.3385 6.236 2.3385 6.236-4.677 3.8975-4.2872 5.4564 4.677 3.118 4.677 5.0667 0 5.4564-1.9487 5.4564-52.616 8.9642-52.616 8.9642 0-34.298 0.77949-38.975-0.38975-28.452-0.38975-28.452z" fill="#373e48"/>
  <path d="m305.85 201.88s-6.063 27.559-7.7166 34.725 1.6536 20.394 1.6536 20.394l-6.063-0.55119-3.3071 23.15-54.016-8.819-4.9607-67.796z" fill="#e9c6af"/>
  <path d="m305.86 201.88s-3.7859 17.205-6.1562 27.781l-4.3125-0.21875-2.5 10.469-5.2217-7.7072c-4.2035-6.2042-13.244-10.853-17.091-6.3241-4.1353 4.8687-4.0565 8.0571-2.4741 11.296-3.3071 0.82678-11.255 0.12914-13.5-2.7613-1.0177-1.3101-2.486-6.3467-2.486-6.3467-5.1691-3.7926-4.4246-0.28044-5.2584 3.875l2.2188 7.6875h8.2812l-6.0625 17.938-16.031-2.25-3.8125-52.312z" fill="#845b40"/>
  <path d="m236.28 245.98 60.8 26.503-5.0667 5.0667-8.9642 77.17-42.419 10.476z" fill="#ac9d93"/>
  <path d="m230.83 242.97 4.5938 1.9688 0.84375 1.0312 11.5 5-1.4375 4.0938 41.875 19.562-11.281 0.5625 4.6624 13.517 1.3944 17.065 6.1705-1.9235-2.2899 17.998-6.625 1.3125 4.875 13.688-2.0625 17.875 2.7188 5.8438-2.3125 3.5-53.031 1.9688s3.1398-39.774 2.75-43.281-4.296-31.562-3.9062-38.188-0.40625-27.281-0.40625-27.281l-7.7812-3.9062z" fill="#3f3630"/>
  <path d="m284.99 362.9 3.118 9.7437-61.97 3.118s1.9487-13.251 3.8975-13.251 54.954 0.38974 54.954 0.38974z" fill="#241f1c"/>
  <path d="m412.44 223.37s-45.016 25.334-48.523 27.087-5.6513 6.236-7.4052 7.0154-47.939 28.452-47.939 28.452c-0.62458 4.4393 1.2095 7.5128 5.2616 9.3539l105.04-61.775c-0.70786-3.9521-0.72691-8.1797-6.4308-10.133z" fill="#917c6f"/>
  <path d="m411.7 223.81 3.0938 4.625 2.5-1.25c1.0189 1.9098 1.1752 4.1501 1.5625 6.3125l-105.03 61.781c-4.0521-1.8412-5.8746-4.9044-5.25-9.3438 0 0 18.004-10.789 32.031-19.125l5.961 5.6675 57.677-33.125-4.013-9.1362c4.4461-2.4982 11.104-6.2012 11.469-6.4062z" fill="#483e37"/>
  <path d="m344.2 256.72c1.8067 0.15825 4.2188 1.5312 4.2188 1.5312s0.41487 5.2429-0.6875 5.6562-3.8622 1.0896-4 0.125-2.0414-7.0369-0.25-7.3125c0.22392-0.0344 0.46065-0.0226 0.71875 0zm6.625 4.6875c3.9424 0.20149 9.5588 10.313 7.6875 13.594-5.4958 0.9661-10.271 3.4781-15.031 8.6875 0 0-6.9062-11.929-6.9062-13.031s4.0098-4.831 5.25-4.9688 6.4688-0.28125 6.4688-0.28125 0.41363-3.162 1.375-3.7188c0.36207-0.20969 0.74842-0.30209 1.1562-0.28125zm-21.906 4.4062c0.61811 0.0487 1.0864 0.23525 1.2812 0.625 0.77949 1.559 0.96875 4.4688 0.96875 4.4688s11.711 12.667 11.906 14.031c-5.375-0.47784-12.743 1.2795-18.125 8.4062-1.559-1.1692-6.0478-9.5643-6.4375-10.344s-18.116 10.511-20.844 11.875l-7.2188-11.094c1.9487-0.77949 25.932-7.9779 26.906-8.5625s4.8694-7.7978 5.8438-8.1875c0.73078-0.2923 3.8644-1.3649 5.7188-1.2188z" fill="#e9c6af"/>
  <path d="m406.21 221.08 9.5181 15.707-0.61486 2.273c7.755 16.33 13.568 44.598 14.337 54.836 0.23002 3.0611-1.6608 10.622-1.9628 8.4911-1.5902-11.224-12.41-54.927-21.653-56.08l-2.6655 1.0834-10.497-17.275 1.4119-2.6254c-3.6285-9.068-22.559-34.513-26.712-37.441-1.816-1.2802 1.1363-4.812 3.9213-5.3549 3.5872-0.69935 34.195 33.532 32.696 36.32z" fill="#666"/>
  <path d="m267.82 208.22-1.1024 6.8898-4.4095-2.2047-2.4803 6.063-12.402 3.5827-14.606 14.606-10.197 0.27559 7.441-4.1339-1.9291-6.6142 2.4803-2.7559-8.2678 1.9292 6.063-10.748 31.693-9.3702z"/>
  <path d="m264.79 206.57c-8.4396 12.218-18.405 24.436-31.969 36.654l-5.7874-7.441c11.05-7.2827 20.703-18.058 30.315-28.937z" fill="#504416"/>
  <path d="m259.83 155.88c51.811 0.55119 47.406 46.562 47.406 46.562l34.156 15.969 0.84375 3.875s-46.395-14.419-70.281-14.062c-16.31 0.24324-47.688 11.031-47.688 11.031l-5.5-13.781 2.4688-1.375c-1.4242-3.2044 0.0322-22.555 10.969-35.75 0.98017-3.1663 2.3363-5.9411 4.1875-8.0625 3.3114-3.7948 14.011-4.1489 18.312-4.1562 1.6338-0.18619 3.3407-0.26898 5.125-0.25z" fill="#c8ab37"/>
  <path d="m263.96 155.31s5.7874-3.8583 10.473 3.8583c1.668 2.7472 12.264 42.028 12.264 42.028l-4.4095-1.7914c-3.845-6.7487-13.06-46.352-18.327-44.095z" fill="#decd87"/>
  <path d="m264.86 153.75c1.4598-0.0129 3.0403 0.24212 4.625 1 4.0166 1.921 13.5 43.969 13.5 43.969-1.2631-7e-3 22.588 8.1363 22.588 8.1363 3.8953 1.2688 2.5997 6.4262 2.5997 6.4262-12.683-2.8341-26.36-5.2095-36.219-5.0625-16.31 0.24324-47.688 11.031-47.688 11.031l-5.5-13.781 2.4688-1.375c-1.4242-3.2044 0.0322-22.555 10.969-35.75 0.98017-3.1663 2.3363-5.9411 4.1875-8.0625 3.3114-3.7948 14.011-4.1489 18.312-4.1562 1.0016-0.11414 2.0362-0.1507 3.0938-0.1875 1.1972-0.75476 3.8341-2.1589 7.0625-2.1875z" fill="#685e35"/>
  <path d="m294.27 214.56-3.5827 10.748 1.6536 3.0315-8.5434-4.9607 2.7559-0.55118s1.4004-5.2258 3.8583-6.8898c1.2171-0.82402 3.8583-1.378 3.8583-1.378z"/>
  <path d="m371.29 184.69c3.5872-0.69935 34.187 33.524 32.688 36.312l2.2188 0.0625 9.5312 15.719-0.625 2.2812c7.755 16.33 13.574 44.605 14.344 54.844 0 0-1.8094-14.808-11.943-38.972l-5.0885-1.809c-2.1918-3.9513-4.4364-6.5434-6.5938-6.8125l-2.6562 1.0625-1.8438-3.0312s12.686-6.1692 11.127-8.5077c0 0-9.9868-14.368-16.379-22.583-7.8288-10.061-25.81-28.222-25.81-28.222 0.34371-0.15103 0.68313-0.27588 1.0312-0.34375z" fill="#1a1a1a"/>
  <path d="m389.08 119.76-57.874 60.079-0.27559 28.937 102.8 125.95 50.709-42.441-28.11-171.97z" fill="#f4eed7" opacity=".5"/>
  <path d="m367.23 89.625c32.144 2.1521 89.213 13.061 95.156 16.906 9.3702 6.063 43.554 52.923 44.656 56.781s1.0884 34.15-2.2188 42.969-9.3551 18.216-9.9062 22.625 9.9176 58.954 10.469 62.812c0.34512 2.4158-1.4378 10.814-2.8438 16.969-22.127 11.349-62.851 69.098-66.627 72.873-7.7166 7.7166-16.562 59.377-35.254 71.115-9.5205 5.9785-26.478 19.295-42.463 19.295-2.4502 0-11.379 8.7192-16.563 8.7161l-200.42-0.12324c-9.3702-0.55119-17.471-28.364-4.2193-28.364 0 0 45.947-6.6919 60.829-7.7942s16.522 3.2926 23.688 3.8438 38.022-3.2953 45.188-5.5 50.716 1.0997 55.125-1.6562 13.224 1.1137 16.531 0.5625 4.9688-7.7214 4.9688-9.375 17.093-15.451 23.156-23.719 21.5-51.25 21.5-51.25-0.0199-6.0566 0.53125-8.8125 6.0711-8.8292 4.9688-12.688 1.0964-18.182 2.75-20.938 13.781-5.5226 19.844-6.625 19.295-3.2953 21.5-5.5-1.0938-6.048-1.0938-9.9062 7.7268-12.693 12.688-16 8.7953-3.2926 11-3.8438 3.8777-7.7182 5.5312-13.781-1.6536-45.755 0-49.062 5.4887-6.6218 4.9375-11.031-4.9542-7.7155-8.8125-12.125-3.8545-15.446-10.469-20.406-3.2926-12.65-3.8438-15.406-13.795-9.923-22.062-13.781-40.795-3.3098-49.062-1.6562-13.761 2.7586-20.375 1.6562-11.045-11.034-19.312-12.688-23.687-2.1961-29.75-1.0938-30.323 0-36.938 0-8.812 1.6589-14.875 3.3125-33.616-5.5113-40.781-6.0625-11.039-5.5312-16-5.5312-56.41 16.187-60.269 17.29-45.188-4.9375-45.188-4.9375l-2.2398-1.2447c-15.59-4.677-10.442-25.767 1.1326-25.215 30.4-13.251 183.75-17.75 275.44-11.611z" fill="#333"/>
  <path d="m391.79 290c3.0595 0.11304 5.7807 2.0802 7.4688 2.5625 1.9291 0.55119 4.1533 0.27829 5.5312 1.6562s1.6562 3.2812 1.6562 3.2812-1.6616 3.0426-4.9688 3.5938-11.287 0.26724-11.562-1.9375-3.0515-8.5426 0.53125-9.0938c0.44784-0.0689 0.90668-0.0786 1.3438-0.0625z"/>
  <path d="m371.7 298.62c2.4803 0 8.5625 3.3125 8.5625 3.3125 0.55119 3.5827-1.3804 6.872-4.6875 8.25s-9.3807 1.6509-9.6562-1.6562 3.3009-9.9062 5.7812-9.9062z"/>
  <path d="m330.93 175.98s6.8898 0.27166 6.8898 17.638c0 21.774-6.6142 16.26-6.6142 16.26z" fill="#fff"/>
  <path d="m332.58 174.6c4.1971 14.316 3.3915 29.852 0.27559 37.205-1.8347 0.73749-5.4252-0.28078-10.197-2.4803l-1.6536-2.2047s-8.819-3.8583-10.197-6.063-1.9292-15.709-0.55118-17.362 12.126-6.8898 12.126-6.8898l1.1024-2.4803z" fill="#483e37"/>
  <path d="m354.42 263.66c2.9566 3.217 5.4276 9.0056 4.0938 11.344-0.55048 0.96498-3.1604 3.1747-4.125 3.3125s-1.392 1.5241-2.2188 1.9375-3.875 1.375-3.875 1.375l-4.8125 2.0625s-3.9648-6.9013-5.875-10.688c2.9054-1.0676 9.6893-3.6616 10.125-4.9688 0.55118-1.6536 3.3209-0.017 5.25-0.84375 1.4201-0.6086 1.4962-2.5431 1.4375-3.5312zm-23.719 6.2812c0.12141 8e-3 0.25566 0.0448 0.375 0.0625 0.0604 0.51084 0.0937 0.90625 0.0937 0.90625s11.711 12.667 11.906 14.031-3.5018 3.921-4.2812 3.5312-4.0973 4.2665-5.6562 4.6562-6.6285 1.388-8.1875 0.21875-6.0478-9.5643-6.4375-10.344-18.116 10.511-20.844 11.875-13.27 6.8199-15.219 6.625-7.1875-2.125-7.1875-2.125l3.3125-9.5625s9.6416-5.096 11.75-5.9688c7.4042-1.6498 30.751-6.9245 31.219-8.0938 0.55118-1.378 5.2554-5.5057 8.5625-5.7812 0.20669-0.0172 0.3919-0.0444 0.59375-0.0312z" fill="#845b40"/>
  <path d="m253.62 268.78s9.7437 7.9898 13.251 9.7437 4.677 4.677 4.677 4.677l-0.38975 3.118 6.8206-0.58462s-5.8128 12.297-3.5746 18.009c2.3292-1.6649 4.9703-3.7152 4.8857-6.4545-0.1352-4.3771 4.1119-11.255 3.7222-12.035s-5.423-1.2736-5.423-1.2736-0.19487-2.3385-0.97437-2.9231-20.657-12.472-20.657-12.472l3.7026-0.38975-6.0411-1.3641z" fill="#ac9d93"/>
  <path d="m275.84 310.87s-4.8718-1.3641-5.2616-2.5334 0-11.692-1.3641-11.692-4.677 6.6257-4.677 6.6257-15.98-7.6001-16.564-9.3539-4.8718-7.7949-4.8718-7.7949l2.3385 7.4052-3.7026-0.19488s20.072 13.446 21.241 13.446 5.4564-1.7539 5.4564-1.7539l0.97437 6.236 7.4052 3.5077z" fill="#27221e"/>
  <path d="m252.98 156.16c-3.0237 0.95897-8.9744 0.73626-13.818 4.6732-5.067 4.1182-5.2357 23.145-5.2357 23.145-1.0828-13.436 0.0419-22.25 3.3979-24.537 6.1735-4.206 11.15-3.1785 15.656-3.2812z" fill="#d3bc5f"/>
  <path d="m209.51 108.16c0.17531-4e-3 0.33415 0.014 0.4375 0.0312 3.3071 0.55119 4.389 7.1676 6.5938 7.7188s35.278 8.2586 39.688 7.1562 19.857-7.7074 28.125-7.1562 56.781 3.3125 56.781 3.3125 9.3718 14.312 13.781 14.312 45.17-6.0539 47.375-7.1562 3.875 3.8438 3.875 3.8438 26.994 3.8551 29.75 4.4062 17.648 10.483 18.75 12.688-3.3125 12.125-3.3125 12.125 18.188 12.13 18.188 15.438 7.1848 27.019 5.5312 32.531-8.2699 14.86-7.7188 18.719 4.9402 38.599 6.5938 41.906 2.2188 15.438 2.2188 15.438-15.974-6.6336-19.281-5.5312-18.747 11.599-17.094 14.906 12.673 13.767 10.469 17.625-12.67 2.1961-14.875 1.0938-34.73 0.56789-35.281 3.875 2.2074 15.423 1.6562 19.281-11.031 12.13-11.031 15.438 2.7473 16.517 1.0938 20.375-22.034 41.369-23.688 44.125-19.281 10.457-19.281 15.969-3.3206 25.344-8.2812 25.344-17.091-7.7188-21.5-7.7188-48.494-2.7473-51.25-1.0938-30.332 12.696-35.844 11.594-24.809-8.8438-29.219-8.8438-31.778-1.3167-34.534 1.4393-14.321 8.8125-19.281 8.8125c-2.8997 0-11.178-2.1846-17.781-4.0625 0 0-0.0165-7.4027 8.9477-6.6232 0 0 42.829-3.9636 57.711-5.066s16.522 3.2926 23.688 3.8438 38.022-3.2953 45.188-5.5 50.716 1.0997 55.125-1.6562 13.224 1.1137 16.531 0.5625 4.9688-7.7214 4.9688-9.375 17.093-15.451 23.156-23.719 21.5-51.25 21.5-51.25-0.0199-6.0566 0.53125-8.8125 6.0711-8.8292 4.9688-12.688 1.0964-18.182 2.75-20.938 13.781-5.5226 19.844-6.625 19.295-3.2953 21.5-5.5-1.0938-6.048-1.0938-9.9062 7.7268-12.693 12.688-16 8.7953-3.2926 11-3.8438 3.8777-7.7182 5.5312-13.781-1.6536-45.755 0-49.062 5.4887-6.6218 4.9375-11.031-4.9542-7.7155-8.8125-12.125-3.8545-15.446-10.469-20.406-3.2926-12.65-3.8438-15.406-13.795-9.923-22.062-13.781-40.795-3.3098-49.062-1.6562-13.761 2.7586-20.375 1.6562-11.045-11.034-19.312-12.688-23.687-2.1961-29.75-1.0938-30.323 0-36.938 0-8.812 1.6589-14.875 3.3125-33.616-5.5113-40.781-6.0625-11.039-5.5312-16-5.5312-56.41 16.187-60.269 17.29-45.188-4.9375-45.188-4.9375c-5.5489 0.0685-7.6248-5.2959-10.781-9.2812 6.0056 0.11042 12.125 0.5235 16.281 1.5625 11.024 2.7559 40.787 8.25 44.094 8.25 3.2038 0 61.584-19.958 67.019-20.071z" fill="#1a1a1a"/>
 </g>
</svg>
