<?xml version='1.0' encoding='utf-8'?>
<svg xmlns:xlink="http://www.w3.org/1999/xlink" xmlns="http://www.w3.org/2000/svg" version="1.1" x="0px" y="0px" width="595.28px" height="595.28px" viewBox="0 0 595.28 595.28" enable-background="new 0 0 595.28 595.28"> <g id="Layer_4"> <polygon fill="#5BA039" points="495.19,378.772 324.36,313.798 150.098,379.117 323.026,439.592 433.833,403.082 495,430 "/> <path fill="#5BA039" d="M415.191,366.231c0.343-2.64,1.853-17.183,1.854-17.182s10.173,1.342,13.674,1.342 s14.824,0.515,19.448,1.886s18.63,8.057,24.655,8.914S495,368.107,495,368.107l-4.381,4.673c0,0-20.571,10.476-25.886,11.443 s-43.715-1.409-44.571-2.792S415.191,366.231,415.191,366.231z"/> <path fill="#3F7A29" d="M440.684,368.334c0,0-7.445,3.453-3.251,4.215s5.724,1.927,4.015,2.997s0.267,0.992,9.196,1.149 s19.308-1.455,16.008-3.601s-0.661-2.398,1.089-4.987s0.68-5.422-2.327-4.95s-8.401-3.159-6.367-1.03s-1.811,0.623-4.648,0.069 s-2.879,2.375-5.936,2.612S444.227,368.788,440.684,368.334z"/> <path fill="#5BA039" d="M152.227,378.344l-2.323-4.725c0,0,5.433-2.286,14.517-3.153s25.681-7.914,31.257-10.624 s22.731-11.31,32.786-12.573s69.217-22.466,74.825-25.542s21.868-10.771,21.868-10.771s13.589,7.73,16.898,8.989 s10.786,3.151,15.643,4.344s31.325,19.206,31.325,19.206s-4.571,0.003-7.39,1.347s-27.967,14.243-27.642,22.373 s-1.218,50.514-7.167,52.898s-17.549,6.65-18.741,8.203s-5.18,5.399-5.18,5.399s-30.484-28.995-32.001-29.754 s-22.981-0.759-22.981-0.759s-61.355-17.886-61.68-18.103S152.227,378.344,152.227,378.344z"/> <path fill="#539635" d="M209.325,361.667c0,0-17.136,1.976-5.197,5.477s29.728,7.72,15.582,7.36s-38.023,2.349-26.264,5.169 s59.066,21.435,52.962,14.058s-2.783-11.417,5.207-11.327s14.272-2.063,3.59-5.026s-30.7-11.58-21.633-10.683 s30.969,0.897,23.967-1.526s-42.909-10.334-36.984-8.174S214.342,361.756,209.325,361.667z"/> <path fill="#3F7A29" d="M267.724,360.15c4.8,2.423,42.019,25.902,42.019,25.902s1.898,2.076,2.502,2.008s42.815-4.861,42.815-4.861 l61.985-34.148l-0.001-0.001l-59.459-22.614C326.794,336.813,264.095,358.318,267.724,360.15z"/> <path fill="#B0AD93" d="M279.643,379.673c0,0-33.12,9.166-25.887,15.583s75.849,36.412,75.849,36.412s30.482-10.382,30.11-11.119 s-79.283-24.713-58.468-34.894C292.406,383.737,279.643,379.673,279.643,379.673z"/> <path fill="#47852E" d="M326.317,434.811l-4.227-0.821c0,0,29.758-8.993,37.559-13.44c7.371-4.202,10.726-5.787,14.602-5.092 s11.112-2.471,16.612-6.411c1.814-1.3,8.702-0.93,12.922-2.349c3.339-1.123,9.263-7.73,13.844-10.507 c1.909-1.157,10.522-1.979,12.368-1.715s6.459-2.134,7.198-3.058s8.851-9.27,20.279-8.185s13.516-1.802,13.516-1.802 s20.895-12.843,24.01-13.324c0.065,4.494,0.19,10.665,0.19,10.665l-15.052,10.509c0,0-133.035,50.21-133.367,50.311 s-20.454,1.12-20.454,1.12L322,439.5L326.317,434.811z"/> <path fill="#47852E" d="M322.091,433.989L322,439.5c0,0,24.972-8.779,24.771-8.686s-5.514,0.004-6.836-0.272 s-0.991-0.661-3.747-0.221s-8.269,1.708-8.709,1.818S322.091,433.989,322.091,433.989z"/> <path fill="#85C441" d="M150.098,383.156L149,379l0.091-5.106c0,0,16.864,3.378,18.693,4.632s30.434,14.79,36.791,14.975 s10.631,1.177,13.261,1.773c-2.137-3.178-3.217-4.136-4.564-4.551c4.414,1.373,5.198,3.756,5.501,4.551 c0.7-1.589,0.937-4.551,0.937-4.551v5.346c0,0,3.468-1.457,3.403-1.722s-1.455,1.722-1.455,1.722s0.972,0.304,3.167,2.039 s11.229,6.19,14.46,6.645s11.988,3.016,15.555,4.218s27.666,10.617,29.819,10.578s16.361,5.812,18.395,6.959 c-0.747-2.43-2.126-5.577-2.126-5.577s3.879,4.117,3.516,5.6c-0.318-4.028,0.343-4.946,1.237-6.342 c0.599,1.506,0.318,4.351,0,6.319c0.996-0.244,2.279-3.462,4.062-2.959c-1.596,1.986-3.75,3.414-1.223,4.653 s13.57,5.788,13.57,5.788L322,439.5l-107.792-32.627L150.098,383.156z"/> <path fill="#412917" d="M448.6,328.4c0,0-0.53,28.292-0.91,31.972c-0.385,3.73-0.874,7.366-0.874,7.366s-0.49,2.406-0.791,3.719 c-0.602,2.627,4.213,1.306,4.213,1.306h0.841c0,0-1.493-3.921-1.549-5.209s0.499-8.694,0.499-8.694l1.029-16.556L448.6,328.4z"/> <path fill="#170300" d="M451.078,372.763c0,0-1.493-3.921-1.549-5.209s0.499-8.694,0.499-8.694l0.848-13.627 c-0.677-0.619-1.355-1.391-1.355-1.391s-0.009,7.6-0.009,9.137c0,2.079-0.85,6.647-0.805,6.964s-1.267,8.591-0.543,9.857 c0.723,1.266,0.835,3.213,1.13,3.163c0.546-0.093,0.943-0.2,0.943-0.2H451.078z"/> <g> <path fill="#1C4D0F" d="M434.903,302.667c-0.15,0.641-3.219,5.179-3.173,5.431c0.047,0.252-0.806,4.316,0,5.018 c0.807,0.701,1.767,1.438,1.691,2.227c-0.074,0.789-4.12,4.704-3.713,5.606c0.408,0.902,0.037,3.573,1.503,4.495 s2.079,1.043,2.017,1.532c-0.062,0.488-1.323,0.523-0.937,1.543c0.386,1.019-2.315,3.222-2.611,3.646 c-0.297,0.424-2.427,2.195-2.427,2.195s-0.302,1.929,0,2.579c0.301,0.651-1.546,3.986-0.135,3.844 c1.412-0.144,12.939-3.986,14.19-2.857s1.396,1.15,2.599,2.862c1.203,1.711,1.515,3.055,1.515,3.055s3.723-2.426,6.944-4.888 s6.026-3.308,7.937-3.618c1.91-0.31,4.468-2.741,5.318-3.172s2.559,1.42,3.168,2.202c0.61,0.782,2.779,0.5,3.22-0.639 c0.44-1.14,0.686-3.213,0.808-4.678c0.121-1.465,0.545-10.585,0-11.008c-0.546-0.423-1.891-0.46-2.897-1.985 c-1.008-1.525-4.059-7.077-5.522-8.205c-1.463-1.128-7.27-4.509-9.642-4.15s-5.851,0.29-6.705,0.558 C447.196,304.527,434.903,302.667,434.903,302.667z"/> <g> <g> <path fill="#47852E" d="M453.474,335.365c-2.055-1.161-3.56-1.195-4.593-0.685c-1.982,1.428-2.27,7.92-2.476,9.372 c-0.476-2.839,0.571-7.121,0.854-8.431c-0.621-0.697-2.263-1.982-5.098-0.484c-3.721,1.963,3.896,13.688,3.896,13.688 S456.717,337.194,453.474,335.365z"/> <path fill="#47852E" d="M444.393,333.125c-1.628-1.708-3.059-2.182-4.195-1.994c-2.312,0.79-4.478,6.917-5.098,8.246 c0.372-2.854,2.621-6.646,3.273-7.816c-0.392-0.848-1.588-2.555-4.737-1.948c-4.129,0.795-0.258,14.229-0.258,14.229 S446.962,335.818,444.393,333.125z"/> <path fill="#47852E" d="M431.14,336.741c-0.775-1.546-1.679-2.183-2.515-2.294c-1.79,0.06-4.618,3.895-5.337,4.693 c0.87-1.922,3.259-4.102,3.966-4.781c-0.094-0.679-0.567-2.132-2.906-2.379c-3.067-0.326-3.222,9.923-3.222,9.923 S432.366,339.181,431.14,336.741z"/> <path fill="#47852E" d="M454.676,326.678c-0.839-2.206-1.976-3.195-3.096-3.461c-2.438-0.167-6.806,4.646-7.891,5.632 c1.447-2.488,4.987-5.115,6.041-5.942c-0.032-0.933-0.475-2.971-3.613-3.629c-4.116-0.864-5.743,13.022-5.743,13.022 S456.004,330.156,454.676,326.678z"/> <path fill="#47852E" d="M438.896,326.353c-0.839-2.205-1.978-3.194-3.098-3.461c-2.438-0.167-6.805,4.646-7.89,5.633 c1.446-2.489,4.988-5.116,6.042-5.943c-0.033-0.933-0.477-2.97-3.614-3.628c-4.116-0.864-5.742,13.021-5.742,13.021 S440.224,329.831,438.896,326.353z"/> </g> <g> <path fill="#134507" d="M479.202,331.633c-2.055-1.161-3.56-1.195-4.593-0.686c-1.982,1.428-2.271,7.921-2.476,9.373 c-0.477-2.841,0.572-7.122,0.854-8.431c-0.62-0.698-2.263-1.982-5.098-0.485c-3.721,1.964,3.895,13.688,3.895,13.688 S482.445,333.462,479.202,331.633z"/> <path fill="#30661E" d="M469.597,329.084c-1.628-1.707-3.059-2.181-4.195-1.993c-2.312,0.789-4.478,6.916-5.098,8.245 c0.372-2.854,2.622-6.646,3.272-7.816c-0.39-0.847-1.586-2.555-4.735-1.948c-4.131,0.795-0.259,14.229-0.259,14.229 S472.165,331.778,469.597,329.084z"/> <path fill="#47852E" d="M456.345,332.701c-0.776-1.546-1.679-2.184-2.516-2.294c-1.79,0.06-4.619,3.894-5.337,4.692 c0.871-1.922,3.26-4.102,3.966-4.782c-0.094-0.678-0.567-2.131-2.906-2.378c-3.067-0.326-3.222,9.924-3.222,9.924 S457.571,335.139,456.345,332.701z"/> <path fill="#134507" d="M479.881,322.636c-0.84-2.205-1.977-3.193-3.097-3.46c-2.438-0.168-6.805,4.645-7.89,5.632 c1.446-2.489,4.987-5.115,6.04-5.941c-0.032-0.933-0.475-2.971-3.613-3.629c-4.116-0.865-5.742,13.021-5.742,13.021 S481.209,326.114,479.881,322.636z"/> <path fill="#47852E" d="M465.542,322.68c-0.839-2.206-1.976-3.193-3.096-3.461c-2.438-0.167-6.806,4.646-7.891,5.634 c1.447-2.49,4.987-5.117,6.041-5.943c-0.032-0.933-0.475-2.97-3.613-3.628c-4.116-0.866-5.743,13.021-5.743,13.021 S466.87,326.159,465.542,322.68z"/> </g> <g> <path fill="#47852E" d="M456.923,319.737c-1.594-1.739-3.014-2.241-4.153-2.077c-2.328,0.742-4.616,6.825-5.262,8.143 c0.429-2.848,2.753-6.593,3.429-7.751c-0.375-0.853-1.536-2.586-4.696-2.043c-4.146,0.713-0.544,14.223-0.544,14.223 S459.437,322.482,456.923,319.737z"/> <path fill="#47852E" d="M448.986,314.789c-1.019-2.128-2.23-3.021-3.37-3.196c-2.443,0.034-6.402,5.186-7.405,6.256 c1.24-2.598,4.555-5.504,5.537-6.414c-0.107-0.927-0.714-2.922-3.897-3.323c-4.173-0.525-4.661,13.447-4.661,13.447 S450.591,318.148,448.986,314.789z"/> <path fill="#47852E" d="M435.266,314.114c-0.26-1.71-0.918-2.597-1.68-2.961c-1.72-0.499-5.598,2.27-6.53,2.805 c1.423-1.557,4.371-2.887,5.254-3.315c0.121-0.673,0.123-2.202-2.024-3.162c-2.813-1.262-6.142,8.433-6.142,8.433 S435.674,316.812,435.266,314.114z"/> <path fill="#47852E" d="M460.763,311.852c-0.113-2.356-0.888-3.65-1.87-4.252c-2.266-0.915-7.912,2.304-9.248,2.906 c2.147-1.917,6.329-3.314,7.586-3.773c0.26-0.897,0.47-2.971-2.309-4.57c-3.645-2.101-9.499,10.595-9.499,10.595 S460.946,315.569,460.763,311.852z"/> <path fill="#47852E" d="M447.119,307.444c-0.113-2.358-0.888-3.651-1.871-4.252c-2.265-0.917-7.91,2.304-9.247,2.906 c2.147-1.918,6.329-3.316,7.586-3.774c0.26-0.898,0.471-2.972-2.308-4.571c-3.646-2.101-9.502,10.597-9.502,10.597 S447.303,311.162,447.119,307.444z"/> </g> </g> <g> <path fill="#6AB641" d="M457.709,334.831c-2.271-0.64-3.742-0.315-4.624,0.426c-1.586,1.858-0.323,8.232-0.178,9.692 c-1.137-2.646-1.137-7.054-1.173-8.393c-0.769-0.529-2.669-1.388-5.067,0.74c-3.147,2.791,7.037,12.37,7.037,12.37 S461.294,335.838,457.709,334.831z"/> <path fill="#599D38" d="M448.355,334.812c-1.987-1.272-3.488-1.392-4.548-0.939c-2.059,1.316-2.707,7.782-2.993,9.221 c-0.316-2.861,0.968-7.079,1.322-8.37c-0.581-0.73-2.148-2.105-5.063-0.768c-3.823,1.754,3.13,13.883,3.13,13.883 S451.491,336.818,448.355,334.812z"/> <path fill="#6FBE44" d="M436.343,341.475c-1.122-1.316-2.149-1.722-2.989-1.631c-1.724,0.483-3.561,4.88-4.068,5.827 c0.389-2.073,2.191-4.759,2.716-5.588c-0.252-0.637-1.058-1.936-3.388-1.619c-3.058,0.412-0.772,10.404-0.772,10.404 S438.113,343.552,436.343,341.475z"/> <path fill="#6FBE44" d="M428.702,324.788c-1.122-1.316-2.149-1.722-2.989-1.631c-1.724,0.483-3.561,4.88-4.068,5.827 c0.389-2.074,2.191-4.759,2.715-5.588c-0.252-0.637-1.057-1.936-3.387-1.619c-3.058,0.412-0.772,10.404-0.772,10.404 S430.473,326.865,428.702,324.788z"/> <path fill="#30661E" d="M456.812,326.105c-1.339-1.943-2.679-2.633-3.83-2.625c-2.408,0.416-5.507,6.129-6.325,7.346 c0.813-2.763,3.629-6.155,4.455-7.208c-0.253-0.898-1.167-2.772-4.372-2.666c-4.204,0.138-2.483,14.013-2.483,14.013 S458.93,329.169,456.812,326.105z"/> <path fill="#91CB80" d="M439.575,327.634c-1.339-1.943-2.679-2.634-3.83-2.626c-2.408,0.417-5.507,6.13-6.325,7.346 c0.813-2.762,3.629-6.154,4.455-7.207c-0.253-0.899-1.167-2.772-4.372-2.666c-4.204,0.138-2.483,14.013-2.483,14.013 S441.692,330.697,439.575,327.634z"/> </g> <g> <path fill="#30661E" d="M479.351,324.186c-2.359,0.021-3.681,0.745-4.32,1.702c-1.002,2.229,1.996,7.995,2.545,9.355 c-1.832-2.222-3.067-6.453-3.477-7.729c-0.886-0.292-2.951-0.584-4.657,2.13c-2.24,3.562,10.22,9.904,10.22,9.904 S483.074,324.146,479.351,324.186z"/> <path fill="#48862E" d="M470.619,326.705c-2.225-0.785-3.714-0.56-4.642,0.122c-1.704,1.751-0.862,8.194-0.813,9.66 c-0.96-2.714-0.671-7.113-0.621-8.451c-0.73-0.578-2.57-1.561-5.104,0.407c-3.323,2.578,6.211,12.804,6.211,12.804 S474.13,327.944,470.619,326.705z"/> <path fill="#599D38" d="M459.865,331.561c-1.122-1.316-2.149-1.722-2.989-1.631c-1.724,0.483-3.561,4.88-4.068,5.827 c0.389-2.074,2.191-4.759,2.715-5.588c-0.251-0.637-1.057-1.936-3.387-1.619c-3.058,0.411-0.772,10.404-0.772,10.404 S461.636,333.638,459.865,331.561z"/> <path fill="#48862E" d="M464.896,317.816c0.624-2.227,1.637-3.262,2.693-3.584c2.334-0.289,6.939,4.254,8.066,5.178 c-1.602-2.393-5.23-4.813-6.312-5.577c-0.048-0.926,0.209-2.966,3.176-3.776c3.891-1.065,6.614,12.6,6.614,12.6 S463.908,321.329,464.896,317.816z"/> <path fill="#30661E" d="M459.534,307.927c-0.448-2.088-0.063-3.247,0.667-3.802c1.794-0.86,7.549,1.862,8.874,2.364 c-2.351-1.647-6.381-2.791-7.603-3.169c-0.439-0.788-1.109-2.618,0.98-4.096c2.741-1.938,10.888,9.163,10.888,9.163 S460.239,311.222,459.534,307.927z"/> <path fill="#30661E" d="M456.532,314.068c0.339-2.108,1.117-3.05,2-3.302c1.983-0.152,6.359,4.471,7.412,5.42 c-1.594-2.389-4.936-4.914-5.937-5.709c-0.124-0.894-0.085-2.842,2.397-3.463c3.257-0.812,6.828,12.485,6.828,12.485 S455.995,317.396,456.532,314.068z"/> <path fill="#6AB641" d="M466.418,319.641c-1.339-1.943-2.679-2.633-3.83-2.625c-2.408,0.416-5.507,6.129-6.326,7.346 c0.814-2.763,3.63-6.154,4.456-7.208c-0.253-0.898-1.167-2.772-4.372-2.666c-4.204,0.138-2.483,14.014-2.483,14.014 S468.535,322.704,466.418,319.641z"/> </g> <g> <path fill="#7AC360" d="M450.391,322.491c-1.911-0.893-3.254-0.821-4.139-0.296c-1.67,1.41-1.481,7.214-1.563,8.521 c-0.619-2.497,0.021-6.385,0.184-7.571c-0.602-0.577-2.152-1.611-4.576-0.083c-3.182,2.005,4.409,11.931,4.409,11.931 S453.405,323.9,450.391,322.491z"/> <path fill="#91CB80" d="M444.495,314.478c-1.229-1.498-2.369-1.974-3.311-1.892c-1.942,0.504-4.095,5.384-4.686,6.432 c0.482-2.312,2.559-5.275,3.165-6.193c-0.267-0.718-1.141-2.19-3.757-1.889c-3.428,0.395-1.093,11.631-1.093,11.631 S446.429,316.842,444.495,314.478z"/> <path fill="#91CB80" d="M442.242,338.363c-1.228-1.498-2.368-1.974-3.31-1.892c-1.942,0.504-4.095,5.384-4.686,6.432 c0.482-2.312,2.559-5.276,3.165-6.193c-0.267-0.718-1.141-2.19-3.757-1.889c-3.428,0.395-1.093,11.631-1.093,11.631 S444.177,340.728,442.242,338.363z"/> <path fill="#6FBE44" d="M433.422,315.342c-0.658-1.6-1.509-2.304-2.335-2.478c-1.789-0.075-4.899,3.534-5.677,4.276 c1.013-1.851,3.56-3.843,4.315-4.469c-0.042-0.684-0.403-2.168-2.718-2.59c-3.033-0.558-3.962,9.65-3.962,9.65 S434.46,317.866,433.422,315.342z"/> <path fill="#6AB641" d="M457.65,307.085c-0.669-2.263-1.729-3.335-2.826-3.686c-2.418-0.351-7.137,4.118-8.293,5.021 c1.631-2.373,5.359-4.724,6.473-5.469c0.039-0.933-0.249-2.997-3.329-3.891c-4.038-1.174-6.709,12.55-6.709,12.55 S458.713,310.653,457.65,307.085z"/> <path fill="#91CB80" d="M443.351,306.045c-0.67-2.263-1.729-3.334-2.827-3.685c-2.418-0.352-7.137,4.118-8.293,5.021 c1.632-2.373,5.361-4.726,6.473-5.47c0.039-0.933-0.248-2.998-3.328-3.892c-4.039-1.173-6.71,12.552-6.71,12.552 S444.412,309.614,443.351,306.045z"/> </g> </g> <path fill="#539635" d="M430.719,350.392c-2.42,0.171-25.394,8.126-22.219,8.889s3.577,2.107-3.414,4.124 s-19.227,4.892-13.714,6.009s8.201,1.658,1.613,3.136s-26.892,4.723-18.151,5.789s31.192,0.466,14.655,2.178 s-39.26,7.887-28.772,8.766s48.672,3.704,31.865,5.519s-22.287,5.133-12.235,7.157c9.275,1.867,13.589,1.272,12.067,6.501 c2.336-0.521,10.57-0.724,12.929-2.54c-5.161-1.479-5.23-15.777-1.197-15.768s12.787,5.375,15.959,5.247s11.603-0.12,15.225-2.673 c-6.667-0.443-23.582-12.554-16.896-16.029s-6.064-7.815,4.612-13.694C435.189,356.314,430.719,350.392,430.719,350.392z"/> </g> <g id="Layer_2"> </g> <g id="Layer_1"> <polygon fill="#A0580A" points="322,490.5 149,430 149,379 322,439.5 "/> <path fill="#914F02" d="M303.92,461.218c-4.174-0.701-5.177-3.039-9.027-5.614s-6.437-2.101-11.013-2.717 s-14.827-4.761-23.856-9.92s-6.731-1.388-19.824-3.56c-7.341-1.218-5.044-3.204-8.731-6.396s-11.274-6.394-18.197-9.464 s-5-5.579-8.975-7.4s-2.805-1.218-5.985-1.97s-6.639,0.752-11.548,1.095s-6.078,2.696-13.576,3.021s-12.607-3.597-14.145-5.711 c-0.99-1.36-6.166-4.934-10.043-7.486V430l173,60.5V464C319.836,464.649,308.094,461.919,303.92,461.218z"/> <polygon fill="#7F3D00" points="322,490.5 495.269,430.001 495.459,378.773 322,439.5 "/> <path fill="#713400" d="M495,430v-27.658c-3.833,3.323-11.284,9.706-12.004,9.741c-0.973,0.048-22.033,9.025-27.388,12.205 s-22.512,13.345-30.612,14.354s-23.653,11.952-30.134,13.697s-30.458,3.439-37.911,3.347S322,464,322,464v26.5L495,430z"/> <path fill="#794000" d="M322,472h-5.5c0,0-26.5-9.5-35-12.5s-32.5-6-38.5-7.5s-15-13.5-30-18.5s-25-7.5-29.5-8s-17-2-27-7 c-2.935-1.468-5.427-2.495-7.5-3.228V430l173,60.5V472z"/> <path fill="#652D00" d="M495,430v-15.822c-4.777,2.631-12.061,6.549-14.041,7.091c-3.02,0.826-13.081,0.618-20.628,4.873 s-24.4,13.247-31.695,15.417s-15.091,8.663-22.639,11.328s-23.396,7.947-30.439,7.444s-17.86-3.019-25.91,2.013S327.5,472,322,472 v18.5L495,430z"/> <path fill="#5BA039" d="M237.457,374.463c-0.792-0.596,5.488-5.445,15.644-4.623s18.757,6.984,18.757,6.984v4.521 C271.857,381.345,243.742,379.188,237.457,374.463z"/> </g> <g id="Layer_3"> <ellipse fill="#763700" cx="159.98" cy="393.499" rx="0.937" ry="0.848"/> <ellipse fill="#763700" cx="184.12" cy="399.293" rx="0.937" ry="0.848"/> <ellipse fill="#5D2800" cx="164.544" cy="401.187" rx="0.937" ry="0.848"/> <ellipse fill="#5D2800" cx="177.24" cy="401.548" rx="0.937" ry="0.848"/> <ellipse transform="matrix(0.3078 0.9514 -0.9514 0.3078 491.0707 110.2774)" fill="#763700" cx="169.741" cy="392.653" rx="0.937" ry="0.848"/> <ellipse transform="matrix(0.3077 0.9515 -0.9515 0.3077 506.113 116.2243)" fill="#5D2800" cx="173.189" cy="405.906" rx="0.937" ry="0.848"/> <ellipse fill="#763700" cx="184.248" cy="404.669" rx="0.937" ry="0.848"/> <ellipse fill="#763700" cx="208.388" cy="410.463" rx="0.937" ry="0.848"/> <ellipse fill="#5D2800" cx="188.812" cy="412.356" rx="0.937" ry="0.848"/> <ellipse fill="#5D2800" cx="201.508" cy="412.718" rx="0.937" ry="0.848"/> <ellipse transform="matrix(0.3078 0.9514 -0.9514 0.3078 518.495 94.9196)" fill="#763700" cx="194.009" cy="403.823" rx="0.937" ry="0.848"/> <ellipse transform="matrix(0.3077 0.9515 -0.9515 0.3077 511.5966 125.2307)" fill="#5D2800" cx="169.741" cy="414.178" rx="0.937" ry="0.848"/> <ellipse fill="#763700" cx="214.208" cy="412.499" rx="0.937" ry="0.848"/> <ellipse fill="#763700" cx="238.348" cy="418.293" rx="0.937" ry="0.848"/> <ellipse fill="#5D2800" cx="218.772" cy="420.187" rx="0.937" ry="0.848"/> <ellipse fill="#5D2800" cx="231.468" cy="420.548" rx="0.937" ry="0.848"/> <ellipse transform="matrix(0.3078 0.9514 -0.9514 0.3078 546.682 71.8338)" fill="#763700" cx="223.969" cy="411.653" rx="0.937" ry="0.848"/> <ellipse transform="matrix(0.3077 0.9515 -0.9515 0.3077 561.7336 77.7809)" fill="#5D2800" cx="227.417" cy="424.906" rx="0.937" ry="0.848"/> <ellipse fill="#763700" cx="240.2" cy="425.323" rx="0.937" ry="0.848"/> <ellipse fill="#763700" cx="265.276" cy="427.354" rx="0.937" ry="0.848"/> <ellipse fill="#763700" cx="261.898" cy="439.591" rx="0.937" ry="0.848"/> <ellipse fill="#5D2800" cx="244.764" cy="433.011" rx="0.937" ry="0.848"/> <ellipse fill="#5D2800" cx="257.102" cy="430.907" rx="0.937" ry="0.848"/> <ellipse transform="matrix(0.3078 0.9514 -0.9514 0.3078 576.8733 55.9811)" fill="#763700" cx="249.961" cy="424.477" rx="0.937" ry="0.848"/> <ellipse transform="matrix(0.3077 0.9515 -0.9515 0.3077 591.9294 61.929)" fill="#5D2800" cx="253.408" cy="437.73" rx="0.937" ry="0.848"/> <ellipse fill="#763700" cx="269.816" cy="435.765" rx="0.937" ry="0.848"/> <ellipse fill="#763700" cx="293.956" cy="449.948" rx="0.937" ry="0.848"/> <ellipse fill="#763700" cx="293.956" cy="441.559" rx="0.937" ry="0.848"/> <ellipse fill="#763700" cx="303.919" cy="455.686" rx="0.937" ry="0.848"/> <ellipse fill="#5D2800" cx="274.38" cy="443.452" rx="0.937" ry="0.848"/> <ellipse fill="#5D2800" cx="285.597" cy="442.405" rx="0.937" ry="0.848"/> <ellipse fill="#5D2800" cx="302.118" cy="443.813" rx="0.937" ry="0.848"/> <ellipse transform="matrix(0.3078 0.9514 -0.9514 0.3078 607.3069 35.0298)" fill="#763700" cx="279.577" cy="434.918" rx="0.937" ry="0.848"/> <ellipse transform="matrix(0.3077 0.9515 -0.9515 0.3077 622.368 40.9778)" fill="#5D2800" cx="283.025" cy="448.172" rx="0.937" ry="0.848"/> <ellipse transform="matrix(0.3079 0.9514 -0.9514 0.3079 638.4905 12.5772)" fill="#5D2800" cx="310.6" cy="445.165" rx="0.937" ry="0.848"/> <ellipse transform="matrix(0.3079 0.9514 -0.9514 0.3079 662.681 2.0561)" fill="#5D2800" cx="329.927" cy="456.532" rx="0.937" ry="0.848"/> <ellipse transform="matrix(0.3079 0.9514 -0.9514 0.3079 655.6516 -10.384)" fill="#5D2800" cx="334.963" cy="445.48" rx="0.937" ry="0.848"/> <ellipse transform="matrix(0.3079 0.9514 -0.9514 0.3079 671.9702 -19.1028)" fill="#5D2800" cx="349.116" cy="452.338" rx="0.937" ry="0.848"/> <ellipse transform="matrix(0.3079 0.9514 -0.9514 0.3079 664.3461 -25.8932)" fill="#5D2800" cx="349.971" cy="443.702" rx="0.937" ry="0.848"/> <ellipse transform="matrix(0.3079 0.9514 -0.9514 0.3079 692.9312 -79.3716)" fill="#5D2800" cx="401.023" cy="436.611" rx="0.937" ry="0.848"/> <ellipse transform="matrix(0.3079 0.9514 -0.9514 0.3079 703.3148 -94.8983)" fill="#5D2800" cx="416.887" cy="435.985" rx="0.937" ry="0.848"/> <ellipse transform="matrix(0.3079 0.9514 -0.9514 0.3079 695.6907 -101.6887)" fill="#5D2800" cx="417.743" cy="427.35" rx="0.937" ry="0.848"/> <ellipse transform="matrix(0.0594 0.9982 -0.9982 0.0594 805.153 -28.8674)" fill="#5D2800" cx="417.895" cy="412.808" rx="0.937" ry="0.848"/> <ellipse transform="matrix(0.0589 0.9983 -0.9983 0.0589 826.8283 -31.0308)" fill="#5D2800" cx="429.872" cy="422.999" rx="0.937" ry="0.849"/> <ellipse transform="matrix(0.0594 0.9982 -0.9982 0.0594 821.2815 -41.8884)" fill="#5D2800" cx="432.868" cy="414.855" rx="0.937" ry="0.848"/> <ellipse transform="matrix(0.0594 0.9982 -0.9982 0.0594 835.8929 -91.0317)" fill="#5D2800" cx="466.251" cy="398.037" rx="0.937" ry="0.848"/> <ellipse transform="matrix(0.0589 0.9983 -0.9983 0.0589 845.3441 -50.245)" fill="#5D2800" cx="449.32" cy="423.212" rx="0.937" ry="0.849"/> <ellipse transform="matrix(0.0594 0.9982 -0.9982 0.0594 839.7872 -61.1021)" fill="#5D2800" cx="452.316" cy="415.068" rx="0.937" ry="0.848"/> <ellipse transform="matrix(-0.3303 -0.9439 0.9439 -0.3303 107.2776 932.6018)" fill="#5D2800" cx="384.505" cy="428.241" rx="0.937" ry="0.848"/> <ellipse transform="matrix(-0.3303 -0.9439 0.9439 -0.3303 90.383 942.9462)" fill="#5D2800" cx="379.728" cy="439.407" rx="0.937" ry="0.848"/> <ellipse transform="matrix(-0.3298 -0.9441 0.9441 -0.3298 77.2689 920.6188)" fill="#5D2800" cx="365.419" cy="432.882" rx="0.937" ry="0.849"/> <ellipse transform="matrix(-0.3298 -0.9441 0.9441 -0.3298 68.2296 931.5082)" fill="#5D2800" cx="364.765" cy="441.535" rx="0.937" ry="0.849"/> <ellipse transform="matrix(-0.3303 -0.9439 0.9439 -0.3303 147.8346 948.2444)" fill="#5D2800" cx="410.333" cy="421.674" rx="0.937" ry="0.848"/> <ellipse transform="matrix(-0.3298 -0.9441 0.9441 -0.3298 130.8292 936.2266)" fill="#5D2800" cx="397.74" cy="421.674" rx="0.937" ry="0.849"/> <ellipse transform="matrix(-0.3298 -0.9441 0.9441 -0.3298 121.7899 947.116)" fill="#5D2800" cx="397.085" cy="430.327" rx="0.937" ry="0.849"/> <ellipse transform="matrix(0.3079 0.9514 -0.9514 0.3079 712.0812 -154.8071)" fill="#5D2800" cx="462.45" cy="412.057" rx="0.937" ry="0.848"/> <ellipse transform="matrix(0.3079 0.9514 -0.9514 0.3079 710.7954 -170.6118)" fill="#5D2800" cx="472.67" cy="403.271" rx="0.937" ry="0.848"/> <ellipse transform="matrix(0.3079 0.9514 -0.9514 0.3079 716.7751 -159.4027)" fill="#5D2800" cx="467.956" cy="412.985" rx="0.937" ry="0.848"/> <ellipse transform="matrix(0.3079 0.9514 -0.9514 0.3079 716.8952 -169.306)" fill="#5D2800" cx="474.823" cy="408.116" rx="0.937" ry="0.848"/> <ellipse transform="matrix(0.3079 0.9514 -0.9514 0.3079 708.4075 -189.4501)" fill="#5D2800" cx="484.425" cy="392.21" rx="0.937" ry="0.848"/> <ellipse transform="matrix(0.3079 0.9514 -0.9514 0.3079 716.7626 -187.4244)" fill="#5D2800" cx="487.21" cy="398.966" rx="0.937" ry="0.848"/> <ellipse transform="matrix(0.3079 0.9514 -0.9514 0.3079 655.5117 15.3162)" fill="#5D2800" cx="317.228" cy="458.234" rx="0.937" ry="0.848"/> <path fill="#743600" d="M211.121,410.169c-1,1.142-2.251,1.877-4.279,1.343c-2.026-0.533-3.397-2-3.062-3.276 c0.336-1.275,2.251-1.878,4.278-1.344C210.085,407.425,211.99,409.176,211.121,410.169z"/> <path fill="#5D2800" d="M165.534,402.894c-0.287,1.287-1.949,1.482-3.659,1.102c-1.709-0.38-2.863-1.732-2.576-3.021 c0.287-1.287,1.407-1.214,3.117-0.833C164.125,400.521,165.821,401.604,165.534,402.894z"/> <path fill="#511F00" d="M244.158,426.801c-0.401,1.256-2.079,1.843-3.748,1.311c-1.668-0.531-2.697-1.981-2.295-3.24 c0.4-1.256,2.062-1.426,3.731-0.894C243.515,424.51,244.56,425.542,244.158,426.801z"/> <path fill="#5D2800" d="M277.476,444.927c-0.287,1.287-1.905,2.021-3.615,1.641c-1.709-0.38-1.918-1.806-2.576-3.021 c-0.628-1.159,1.905-2.022,3.615-1.642C276.609,442.285,277.763,443.638,277.476,444.927z"/> <path fill="#3B0E00" d="M448.521,406.107c-0.287,1.286,0.689,2.599,2.18,2.932s2.22-0.884,3.219-1.73 c0.952-0.808-0.688-2.601-2.18-2.933C450.249,404.043,448.808,404.818,448.521,406.107z"/> <path fill="#5D2800" d="M421.328,418.988c-0.287,1.286,0.689,2.599,2.18,2.932s2.22-0.884,3.219-1.73 c0.952-0.808-0.688-2.601-2.18-2.933C423.057,416.924,421.615,417.699,421.328,418.988z"/> <ellipse transform="matrix(0.976 0.2177 -0.2177 0.976 104.352 -56.9364)" fill="#713400" cx="310.6" cy="445.166" rx="3.172" ry="2.388"/> <ellipse transform="matrix(-0.9988 -0.0494 0.0494 -0.9988 683.9332 892.3807)" fill="#532100" cx="353.003" cy="437.732" rx="2.637" ry="2.387"/> <path fill="#431400" d="M388.375,445.036c-0.066,1.316,2.516,2.517,3.97,2.589c1.455,0.074,1.232-1.009,1.298-2.328 c0.066-1.317-1.059-2.444-2.515-2.518C389.674,442.707,388.44,443.717,388.375,445.036z"/> <g> <polygon fill="#1B8078" points="282.579,220.903 273.404,376.572 312.245,386.053 315.916,223.655 "/> <polygon fill="#14736C" points="355.061,379.324 346.498,222.432 315.916,223.655 312.245,386.053 "/> <polygon fill="#004F57" points="360.566,215.397 346.498,222.432 355.061,379.324 372.801,361.891 "/> <polygon fill="#4B8882" points="282.579,220.903 274.933,216.927 261.783,358.527 273.404,376.572 "/> <circle fill="#549735" cx="292.315" cy="199.065" r="6.187"/> <path fill="#643529" d="M272.634,207.559c0.712,0.428,12.255-9.944,15.89-23.336c3.634-13.391,19.322-21.808,29.269-22.573 c11.287,1.722,22.765,8.991,30.034,24.87c7.27,15.877,8.801,16.828,15.879,21.04c-3.636,4.785-5.358,5.742-5.358,5.742 l-18.747,4.59h-48.781l-15.496-3.263C275.324,214.629,271.922,207.131,272.634,207.559z"/> <path fill="#441F12" d="M292.209,210.685c0,0,0.065-7.645,0.139-11.645s1.609-8.095,7.019-8.168s6.396,4.071,6.287,8.663 s0.008,11.454,0.008,11.454L292.209,210.685z"/> <path fill="#441F12" d="M347.827,186.519c-7.198-15.726-18.527-23.004-29.709-24.815c0.256,3.081,5.933,33.607,6.729,33.88 c0.834,0.287,1.773,9.668,1.773,9.668l0.876,12.575c0,0,0.119,0.024,0.338,0.064h11.767l18.747-4.59c0,0,1.723-0.957,5.358-5.742 C356.628,203.347,355.097,202.396,347.827,186.519z"/> <polygon fill="#66372A" points="347.019,223.713 315.462,225.544 315.916,216.177 347.019,214.629 "/> <polygon fill="#51281C" points="363.706,216.895 347.019,223.965 347.019,214.629 363.706,207.559 "/> <rect x="283.72" y="215.397" transform="matrix(0.9988 0.0484 -0.0484 0.9988 10.9973 -14.2406)" fill="#744032" width="31.988" height="9.379"/> <polygon fill="#84493B" points="283.886,223.965 272.181,216.927 272.634,207.559 284.34,214.598 "/> <g> <defs> <polygon id="SVGID_1_" points="282.579,220.903 273.404,376.572 312.245,386.053 315.916,223.655 "/> </defs> <clipPath id="SVGID_2_"> <use xlink:href="#SVGID_1_" overflow="visible"/> </clipPath> <g clip-path="url(#SVGID_2_)"> <g> <path fill="#1A565D" d="M244.711,371.219c1.427,0.436,69.372,12.811,69.372,12.811l-1.093,1.383c0,0-20.745-4.492-37.639-7.432 c-16.896-2.943-31.25-5.025-31.25-5.025L244.711,371.219z"/> </g> <g> <path fill="#1A565D" d="M248.279,364.045c1.377,0.418,66.842,12,66.842,12l-1.034,1.393c0,0-19.997-4.246-36.273-6.99 c-16.277-2.742-30.104-4.658-30.104-4.658L248.279,364.045z"/> </g> <g> <path fill="#1A565D" d="M251.627,356.832c1.328,0.4,64.402,11.217,64.402,11.217l-0.979,1.404c0,0-19.274-4.012-34.954-6.564 c-15.682-2.553-28.996-4.307-28.996-4.307L251.627,356.832z"/> </g> <g> <path fill="#1A565D" d="M254.767,349.578c1.281,0.387,62.047,10.463,62.047,10.463l-0.925,1.418c0,0-18.577-3.787-33.682-6.158 c-15.106-2.367-27.927-3.967-27.927-3.967L254.767,349.578z"/> </g> <g> <path fill="#1A565D" d="M257.703,342.287c1.237,0.373,59.774,9.738,59.774,9.738l-0.874,1.428c0,0-17.902-3.568-32.452-5.76 c-14.55-2.193-26.896-3.641-26.896-3.641L257.703,342.287z"/> </g> <g> <path fill="#1A565D" d="M260.444,334.967c1.193,0.357,57.581,9.037,57.581,9.037l-0.825,1.438c0,0-17.253-3.361-31.267-5.383 c-14.015-2.021-25.901-3.326-25.901-3.326L260.444,334.967z"/> </g> <g> <path fill="#1A565D" d="M262.997,327.611c1.152,0.344,55.464,8.363,55.464,8.363l-0.777,1.445c0,0-16.625-3.156-30.122-5.014 c-13.498-1.859-24.94-3.023-24.94-3.023L262.997,327.611z"/> </g> <g> <path fill="#1A565D" d="M265.369,320.227c1.111,0.33,53.422,7.715,53.422,7.715l-0.731,1.455c0,0-16.021-2.963-29.018-4.66 c-12.999-1.703-24.014-2.732-24.014-2.732L265.369,320.227z"/> </g> <g> <path fill="#1A565D" d="M267.568,312.816c1.071,0.314,51.449,7.088,51.449,7.088l-0.686,1.465c0,0-15.437-2.773-27.953-4.324 c-12.517-1.549-23.119-2.449-23.119-2.449L267.568,312.816z"/> </g> <g> <path fill="#1A565D" d="M269.597,305.379c1.034,0.305,49.547,6.488,49.547,6.488l-0.645,1.471c0,0-14.872-2.592-26.923-3.996 c-12.052-1.4-22.255-2.178-22.255-2.178L269.597,305.379z"/> </g> <g> <path fill="#1A565D" d="M271.465,297.918c0.998,0.294,47.711,5.91,47.711,5.91l-0.604,1.479c0,0-14.329-2.42-25.931-3.682 c-11.604-1.262-21.423-1.918-21.423-1.918L271.465,297.918z"/> </g> <g> <path fill="#1A565D" d="M273.178,290.438c0.961,0.281,45.939,5.349,45.939,5.349l-0.563,1.487c0,0-13.805-2.253-24.974-3.378 c-11.17-1.125-20.619-1.668-20.619-1.668L273.178,290.438z"/> </g> <g> <path fill="#1A565D" d="M274.739,282.937c0.928,0.271,44.23,4.812,44.23,4.812l-0.524,1.494c0,0-13.299-2.091-24.05-3.086 c-10.753-0.995-19.843-1.427-19.843-1.427L274.739,282.937z"/> </g> <g> <path fill="#1A565D" d="M276.157,275.419c0.896,0.258,42.579,4.294,42.579,4.294l-0.486,1.5c0,0-12.81-1.935-23.159-2.805 c-10.35-0.869-19.095-1.194-19.095-1.194L276.157,275.419z"/> </g> <g> <path fill="#1A565D" d="M277.436,267.885c0.863,0.248,40.985,3.795,40.985,3.795l-0.45,1.505c0,0-12.337-1.785-22.297-2.534 c-9.96-0.747-18.372-0.971-18.372-0.971L277.436,267.885z"/> </g> <g> <path fill="#1A565D" d="M278.58,260.336c0.833,0.239,39.45,3.317,39.45,3.317l-0.416,1.51c0,0-11.882-1.64-21.467-2.272 c-9.585-0.632-17.675-0.757-17.675-0.757L278.58,260.336z"/> </g> <g> <path fill="#1A565D" d="M279.595,252.775c0.804,0.229,37.968,2.854,37.968,2.854l-0.385,1.515c0,0-11.443-1.502-20.665-2.021 c-9.223-0.52-17.002-0.55-17.002-0.55L279.595,252.775z"/> </g> <g> <path fill="#1A565D" d="M280.487,245.203c0.775,0.218,36.537,2.41,36.537,2.41l-0.352,1.52c0,0-11.02-1.368-19.892-1.78 c-8.875-0.412-16.354-0.351-16.354-0.351L280.487,245.203z"/> </g> <g> <path fill="#1A565D" d="M281.258,237.619c0.749,0.21,35.156,1.983,35.156,1.983l-0.321,1.524c0,0-10.608-1.24-19.145-1.547 c-8.537-0.308-15.728-0.159-15.728-0.159L281.258,237.619z"/> </g> <g> <path fill="#1A565D" d="M281.915,230.028c0.722,0.201,33.823,1.571,33.823,1.571l-0.291,1.527c0,0-10.215-1.115-18.425-1.323 c-8.211-0.208-15.124,0.024-15.124,0.024L281.915,230.028z"/> </g> </g> </g> <g> <defs> <polygon id="SVGID_3_" points="355.061,381.25 346.498,222.432 315.916,223.67 312.245,388.061 "/> </defs> <clipPath id="SVGID_4_"> <use xlink:href="#SVGID_3_" overflow="visible"/> </clipPath> <g clip-path="url(#SVGID_4_)"> <g> <path fill="#0D454B" d="M300.84,384.572c2.109-0.074,94.533-10.971,94.533-10.971l0.032,1.576c0,0-28.9,2.695-51.752,5.527 c-22.856,2.832-41.868,5.605-41.868,5.605L300.84,384.572z"/> </g> <g> <path fill="#0D454B" d="M301.387,376.455c1.991-0.055,89.271-10.146,89.271-10.146l0.016,1.578c0,0-27.285,2.443-48.866,5.074 c-21.584,2.633-39.542,5.238-39.542,5.238L301.387,376.455z"/> </g> <g> <path fill="#0D454B" d="M301.971,368.34c1.879-0.037,84.296-9.365,84.296-9.365l0.002,1.576c0,0-25.76,2.207-46.139,4.652 c-20.383,2.439-37.346,4.891-37.346,4.891L301.971,368.34z"/> </g> <g> <path fill="#0D454B" d="M302.588,360.232c1.771-0.02,79.599-8.631,79.599-8.631l-0.011,1.58c0,0-24.318,1.98-43.565,4.246 c-19.248,2.264-35.27,4.566-35.27,4.566L302.588,360.232z"/> </g> <g> <path fill="#0D454B" d="M303.236,352.131c1.672-0.004,75.161-7.934,75.161-7.934l-0.023,1.576c0,0-22.957,1.768-41.132,3.865 c-18.177,2.096-33.311,4.26-33.311,4.26L303.236,352.131z"/> </g> <g> <path fill="#0D454B" d="M303.914,344.035c1.577,0.01,70.972-7.279,70.972-7.279l-0.035,1.578c0,0-21.673,1.566-38.834,3.506 c-17.166,1.938-31.461,3.967-31.461,3.967L303.914,344.035z"/> </g> <g> <path fill="#0D454B" d="M304.621,335.945c1.488,0.023,67.011-6.66,67.011-6.66l-0.046,1.578c0,0-20.458,1.379-36.663,3.166 c-16.209,1.789-29.711,3.695-29.711,3.695L304.621,335.945z"/> </g> <g> <path fill="#0D454B" d="M305.354,327.861c1.404,0.035,63.27-6.074,63.27-6.074l-0.056,1.576c0,0-19.311,1.201-34.613,2.848 c-15.305,1.646-28.058,3.434-28.058,3.434L305.354,327.861z"/> </g> <g> <path fill="#0D454B" d="M306.114,319.785c1.323,0.049,59.734-5.523,59.734-5.523l-0.065,1.576c0,0-18.227,1.033-32.676,2.547 c-14.451,1.512-26.496,3.188-26.496,3.188L306.114,319.785z"/> </g> <g> <path fill="#0D454B" d="M306.896,311.715c1.25,0.061,56.398-5,56.398-5l-0.075,1.576c0,0-17.203,0.873-30.847,2.26 c-13.646,1.385-25.022,2.959-25.022,2.959L306.896,311.715z"/> </g> <g> <path fill="#0D454B" d="M307.7,303.652c1.177,0.07,53.243-4.508,53.243-4.508l-0.082,1.574c0,0-16.236,0.725-29.118,1.992 c-12.884,1.266-23.631,2.738-23.631,2.738L307.7,303.652z"/> </g> <g> <path fill="#0D454B" d="M308.525,295.599c1.11,0.079,50.266-4.044,50.266-4.044l-0.092,1.573c0,0-15.322,0.581-27.485,1.736 c-12.165,1.155-22.314,2.533-22.314,2.533L308.525,295.599z"/> </g> <g> <path fill="#0D454B" d="M309.369,287.55c1.048,0.09,47.452-3.605,47.452-3.605l-0.1,1.573c0,0-14.458,0.448-25.941,1.497 c-11.487,1.048-21.072,2.338-21.072,2.338L309.369,287.55z"/> </g> <g> <path fill="#0D454B" d="M310.234,279.51c0.984,0.099,44.792-3.191,44.792-3.191l-0.107,1.571c0,0-13.644,0.322-24.484,1.271 c-10.844,0.948-19.898,2.154-19.898,2.154L310.234,279.51z"/> </g> <g> <path fill="#0D454B" d="M311.112,271.478c0.93,0.108,42.283-2.8,42.283-2.8l-0.113,1.571c0,0-12.873,0.203-23.109,1.057 c-10.237,0.854-18.788,1.981-18.788,1.981L311.112,271.478z"/> </g> <g> <path fill="#0D454B" d="M312.011,263.454c0.875,0.116,39.909-2.431,39.909-2.431l-0.119,1.569c0,0-12.147,0.09-21.809,0.855 c-9.665,0.765-17.741,1.817-17.741,1.817L312.011,263.454z"/> </g> <g> <path fill="#0D454B" d="M312.922,255.437c0.825,0.125,37.671-2.081,37.671-2.081l-0.128,1.567c0,0-11.458-0.015-20.58,0.666 c-9.123,0.679-16.75,1.662-16.75,1.662L312.922,255.437z"/> </g> <g> <path fill="#0D454B" d="M313.848,247.43c0.777,0.131,35.554-1.753,35.554-1.753l-0.133,1.567c0,0-10.809-0.116-19.42,0.484 c-8.612,0.601-15.815,1.517-15.815,1.517L313.848,247.43z"/> </g> <g> <path fill="#0D454B" d="M314.786,239.43c0.732,0.138,33.555-1.442,33.555-1.442l-0.137,1.565c0,0-10.196-0.21-18.324,0.316 c-8.13,0.525-14.932,1.377-14.932,1.377L314.786,239.43z"/> </g> <g> <path fill="#0D454B" d="M315.739,231.439c0.69,0.145,31.667-1.15,31.667-1.15l-0.144,1.564c0,0-9.617-0.298-17.29,0.156 c-7.672,0.454-14.098,1.247-14.098,1.247L315.739,231.439z"/> </g> </g> </g> <polygon fill="#00373D" points="324.847,291.174 324.448,291.502 325.515,293.185 342.282,291.898 341.877,258.44 340.678,257.919 "/> <polygon fill="#E4E5E6" points="326.802,260.11 325.336,259.689 324.448,259.323 340.47,257.919 341.171,258.329 "/> <path fill="#FFFFFF" d="M325.244,291.898v-32.201l15.927-1.369v32.201L325.244,291.898z M327.995,262.221v26.68l10.426-0.897 v-26.679L327.995,262.221z"/> <polygon fill="#434345" points="339.796,289.267 326.62,290.4 326.62,260.96 339.796,259.827 "/> <rect x="332.619" y="260.301" transform="matrix(0.1002 0.995 -0.995 0.1002 565.6114 -91.1636)" fill="#FFFFFF" width="1.179" height="13.668"/> <rect x="332.619" y="267.604" transform="matrix(0.1003 0.995 -0.995 0.1003 572.8483 -84.6119)" fill="#FFFFFF" width="1.178" height="13.668"/> <rect x="332.619" y="275.662" transform="matrix(0.1002 0.995 -0.995 0.1002 580.8805 -77.3518)" fill="#FFFFFF" width="1.179" height="13.668"/> <rect x="332.619" y="259.827" fill="#FFFFFF" width="1.18" height="30.573"/> <path fill="#CFD1D2" d="M324.448,259.323c0.517,0.064,0.796,0.375,0.796,0.375v32.201l-0.796-0.396V259.323z"/> <g> <defs> <polygon id="SVGID_5_" points="360.566,215.397 346.498,222.432 355.061,379.324 372.801,361.891 "/> </defs> <clipPath id="SVGID_6_"> <use xlink:href="#SVGID_5_" overflow="visible"/> </clipPath> <g clip-path="url(#SVGID_6_)"> <path fill="#00373D" d="M352.183,372.18c0.722-0.449,28.24-26.641,28.24-26.641l0.874,1.316c0,0-8.993,7.594-15.723,14.184 c-6.731,6.592-12.102,12.428-12.102,12.428L352.183,372.18z"/> </g> <g clip-path="url(#SVGID_6_)"> <path fill="#00373D" d="M349.685,366.432c0.73-0.436,28.701-26.145,28.701-26.145l0.852,1.334c0,0-9.125,7.434-15.968,13.904 c-6.846,6.475-12.317,12.217-12.317,12.217L349.685,366.432z"/> </g> <g clip-path="url(#SVGID_6_)"> <path fill="#00373D" d="M347.321,360.643c0.738-0.424,29.154-25.639,29.154-25.639l0.828,1.346c0,0-9.254,7.275-16.208,13.625 c-6.958,6.354-12.53,12-12.53,12L347.321,360.643z"/> </g> <g clip-path="url(#SVGID_6_)"> <path fill="#00373D" d="M345.094,354.025c0.746-0.41,29.598-25.127,29.598-25.127l0.805,1.363c0,0-9.378,7.111-16.443,13.34 c-7.068,6.23-12.735,11.777-12.735,11.777L345.094,354.025z"/> </g> <g clip-path="url(#SVGID_6_)"> <path fill="#00373D" d="M343.005,347.373c0.753-0.398,30.029-24.607,30.029-24.607l0.78,1.377c0,0-9.5,6.947-16.672,13.053 c-7.176,6.104-12.94,11.551-12.94,11.551L343.005,347.373z"/> </g> <g clip-path="url(#SVGID_6_)"> <path fill="#00373D" d="M341.051,340.289c0.759-0.383,30.455-24.078,30.455-24.078l0.756,1.391c0,0-9.621,6.779-16.897,12.758 c-7.282,5.98-13.14,11.326-13.14,11.326L341.051,340.289z"/> </g> <g clip-path="url(#SVGID_6_)"> <path fill="#00373D" d="M339.236,333.176c0.765-0.371,30.871-23.545,30.871-23.545l0.73,1.402c0,0-9.737,6.611-17.119,12.463 c-7.385,5.852-13.335,11.094-13.335,11.094L339.236,333.176z"/> </g> <g clip-path="url(#SVGID_6_)"> <path fill="#00373D" d="M337.558,326.029c0.772-0.357,31.277-23,31.277-23l0.708,1.416c0,0-9.853,6.439-17.335,12.16 c-7.484,5.721-13.527,10.859-13.527,10.859L337.558,326.029z"/> </g> <g clip-path="url(#SVGID_6_)"> <path fill="#00373D" d="M336.019,318.855c0.778-0.344,31.674-22.451,31.674-22.451l0.683,1.426c0,0-9.962,6.269-17.543,11.857 c-7.584,5.592-13.715,10.623-13.715,10.623L336.019,318.855z"/> </g> <g clip-path="url(#SVGID_6_)"> <path fill="#00373D" d="M334.618,311.658c0.784-0.332,32.062-21.897,32.062-21.897l0.656,1.439c0,0-10.07,6.094-17.748,11.548 c-7.68,5.457-13.896,10.381-13.896,10.381L334.618,311.658z"/> </g> <g clip-path="url(#SVGID_6_)"> <path fill="#00373D" d="M333.359,303.65c0.789-0.318,32.438-21.334,32.438-21.334l0.634,1.45c0,0-10.177,5.917-17.948,11.237 c-7.774,5.321-14.076,10.137-14.076,10.137L333.359,303.65z"/> </g> <g clip-path="url(#SVGID_6_)"> <path fill="#00373D" d="M332.238,295.62c0.795-0.303,32.806-20.763,32.806-20.763l0.607,1.461c0,0-10.277,5.738-18.14,10.922 c-7.867,5.185-14.252,9.89-14.252,9.89L332.238,295.62z"/> </g> <g clip-path="url(#SVGID_6_)"> <path fill="#00373D" d="M331.257,287.573c0.802-0.291,33.164-20.188,33.164-20.188l0.582,1.471c0,0-10.376,5.558-18.327,10.605 c-7.956,5.046-14.423,9.639-14.423,9.639L331.257,287.573z"/> </g> <g clip-path="url(#SVGID_6_)"> <path fill="#00373D" d="M330.418,279.51c0.806-0.276,33.512-19.606,33.512-19.606l0.556,1.48c0,0-10.473,5.376-18.512,10.283 c-8.041,4.907-14.587,9.386-14.587,9.386L330.418,279.51z"/> </g> <g clip-path="url(#SVGID_6_)"> <path fill="#00373D" d="M329.72,271.433c0.812-0.261,33.849-19.018,33.849-19.018l0.529,1.49c0,0-10.562,5.192-18.688,9.958 c-8.125,4.766-14.748,9.129-14.748,9.129L329.72,271.433z"/> </g> <g clip-path="url(#SVGID_6_)"> <path fill="#00373D" d="M329.162,263.346c0.816-0.248,34.176-18.425,34.176-18.425l0.503,1.5c0,0-10.652,5.007-18.859,9.63 c-8.207,4.624-14.905,8.872-14.905,8.872L329.162,263.346z"/> </g> <g clip-path="url(#SVGID_6_)"> <path fill="#00373D" d="M328.746,255.25c0.819-0.233,34.491-17.825,34.491-17.825l0.477,1.508c0,0-10.737,4.821-19.022,9.3 c-8.287,4.479-15.06,8.61-15.06,8.61L328.746,255.25z"/> </g> <g clip-path="url(#SVGID_6_)"> <path fill="#00373D" d="M328.471,247.148c0.824-0.219,34.798-17.221,34.798-17.221l0.45,1.516c0,0-10.819,4.632-19.182,8.967 c-8.365,4.334-15.207,8.346-15.207,8.346L328.471,247.148z"/> </g> <g clip-path="url(#SVGID_6_)"> <path fill="#00373D" d="M328.338,239.042c0.827-0.204,35.093-16.61,35.093-16.61l0.424,1.524c0,0-10.9,4.442-19.337,8.63 c-8.438,4.188-15.35,8.079-15.35,8.079L328.338,239.042z"/> </g> </g> <g> <defs> <polygon id="SVGID_7_" points="282.579,220.903 274.933,216.927 261.783,358.527 273.404,376.572 "/> </defs> <clipPath id="SVGID_8_"> <use xlink:href="#SVGID_7_" overflow="visible"/> </clipPath> <g clip-path="url(#SVGID_8_)"> <g> <path fill="#437B76" d="M274.822,369.387c-0.37-0.285-13.842-15.779-13.842-15.779l-0.583,0.633c0,0,4.472,4.559,7.753,8.441 c3.282,3.887,5.859,7.291,5.859,7.291L274.822,369.387z"/> </g> <g> <path fill="#437B76" d="M275.209,362.018c-0.375-0.279-14.115-15.537-14.115-15.537l-0.572,0.645c0,0,4.551,4.479,7.899,8.305 c3.349,3.83,5.985,7.188,5.985,7.188L275.209,362.018z"/> </g> <g> <path fill="#437B76" d="M275.342,353.875c-0.38-0.271-14.384-15.287-14.384-15.287l-0.561,0.652c0,0,4.629,4.398,8.043,8.17 c3.415,3.768,6.11,7.08,6.11,7.08L275.342,353.875z"/> </g> <g> <path fill="#437B76" d="M276.34,345.852c-0.386-0.264-14.65-15.031-14.65-15.031l-0.548,0.662c0,0,4.704,4.316,8.184,8.025 c3.481,3.709,6.232,6.973,6.232,6.973L276.34,345.852z"/> </g> <g> <path fill="#437B76" d="M276.14,337.68c-0.39-0.258-14.91-14.773-14.91-14.773l-0.537,0.67c0,0,4.779,4.236,8.323,7.883 c3.545,3.648,6.354,6.863,6.354,6.863L276.14,337.68z"/> </g> <g> <path fill="#437B76" d="M276.786,330.162c-0.394-0.248-15.165-14.51-15.165-14.51l-0.524,0.68c0,0,4.852,4.15,8.458,7.738 c3.609,3.584,6.472,6.75,6.472,6.75L276.786,330.162z"/> </g> <g> <path fill="#437B76" d="M277.694,322.617c-0.398-0.244-15.415-14.246-15.415-14.246l-0.513,0.691c0,0,4.923,4.064,8.591,7.586 c3.671,3.523,6.59,6.639,6.59,6.639L277.694,322.617z"/> </g> <g> <path fill="#437B76" d="M278.077,315.041c-0.402-0.236-15.661-13.975-15.661-13.975l-0.501,0.701c0,0,4.993,3.979,8.723,7.434 c3.732,3.459,6.704,6.523,6.704,6.523L278.077,315.041z"/> </g> <g> <path fill="#437B76" d="M278.72,307.439c-0.406-0.229-15.903-13.698-15.903-13.698l-0.488,0.708c0,0,5.062,3.891,8.852,7.283 c3.792,3.393,6.817,6.404,6.817,6.404L278.72,307.439z"/> </g> <g> <path fill="#437B76" d="M279.231,299.814c-0.411-0.221-16.14-13.418-16.14-13.418l-0.476,0.717c0,0,5.129,3.801,8.978,7.126 c3.851,3.325,6.927,6.284,6.927,6.284L279.231,299.814z"/> </g> <g> <path fill="#437B76" d="M279.609,292.168c-0.415-0.214-16.372-13.134-16.372-13.134l-0.463,0.725c0,0,5.195,3.711,9.101,6.969 c3.907,3.257,7.036,6.162,7.036,6.162L279.609,292.168z"/> </g> <g> <path fill="#437B76" d="M279.46,284.502c-0.417-0.207-16.598-12.845-16.598-12.845l-0.451,0.732c0,0,5.259,3.621,9.221,6.809 c3.964,3.188,7.143,6.039,7.143,6.039L279.46,284.502z"/> </g> <g> <path fill="#437B76" d="M280.356,276.821c-0.422-0.2-16.82-12.555-16.82-12.555l-0.438,0.74c0,0,5.322,3.529,9.338,6.647 c4.019,3.119,7.247,5.913,7.247,5.913L280.356,276.821z"/> </g> <g> <path fill="#437B76" d="M281.118,269.124c-0.425-0.192-17.036-12.259-17.036-12.259l-0.426,0.748c0,0,5.382,3.436,9.453,6.484 c4.072,3.048,7.349,5.785,7.349,5.785L281.118,269.124z"/> </g> <g> <path fill="#437B76" d="M281.745,261.415c-0.428-0.184-17.248-11.96-17.248-11.96l-0.412,0.755c0,0,5.441,3.341,9.565,6.318 c4.125,2.977,7.449,5.655,7.449,5.655L281.745,261.415z"/> </g> <g> <path fill="#437B76" d="M282.237,253.696c-0.432-0.177-17.454-11.657-17.454-11.657l-0.399,0.762c0,0,5.499,3.246,9.674,6.15 c4.176,2.905,7.546,5.524,7.546,5.524L282.237,253.696z"/> </g> <g> <path fill="#437B76" d="M282.596,245.97c-0.435-0.17-17.655-11.351-17.655-11.351l-0.386,0.769c0,0,5.555,3.149,9.78,5.98 c4.226,2.831,7.641,5.392,7.641,5.392L282.596,245.97z"/> </g> <g> <path fill="#437B76" d="M282.818,238.239c-0.438-0.162-17.851-11.041-17.851-11.041l-0.372,0.775c0,0,5.609,3.052,9.882,5.809 c4.275,2.757,7.735,5.258,7.735,5.258L282.818,238.239z"/> </g> <g> <path fill="#437B76" d="M282.906,230.505c-0.44-0.154-18.041-10.728-18.041-10.728l-0.358,0.782c0,0,5.662,2.954,9.982,5.636 c4.322,2.681,7.825,5.122,7.825,5.122L282.906,230.505z"/> </g> </g> </g> <path fill="#5A2F22" d="M315.916,167.866c0,0-1.771,27.073-0.787,34.361c0.983,7.29,0.787,13.95,0.787,13.95l30.582-2.338 c0,0-16.415-50.547-28.705-52.189C315.916,164.261,315.916,167.866,315.916,167.866z"/> <g> <rect x="163.83" y="155.114" transform="matrix(0.8116 0.5841 -0.5841 0.8116 136.1566 -108.8806)" fill="#1C0400" width="146.173" height="3.159"/> <g> <rect x="164.243" y="154.673" transform="matrix(0.8116 0.5841 -0.5841 0.8116 135.7458 -109.7823)" fill="#3A2311" width="147.733" height="1.867"/> <path fill="#C0C2C4" d="M256.852,193.371l-91.157-65.605l14.409-20.021l91.156,65.606L256.852,193.371z M168.965,127.233 l87.354,62.869l11.672-16.218l-87.354-62.869L168.965,127.233z"/> <path fill="#C0C2C4" d="M171.6,132.015c-0.525-0.378-0.644-1.11-0.267-1.635l13.041-18.12c0.377-0.525,1.109-0.644,1.635-0.266 c0.525,0.377,0.645,1.11,0.267,1.634l-13.041,18.12C172.857,132.274,172.125,132.394,171.6,132.015z"/> <path fill="#C0C2C4" d="M177.166,136.021c-0.525-0.378-0.645-1.11-0.267-1.635l13.041-18.119 c0.377-0.525,1.109-0.645,1.633-0.267c0.526,0.378,0.646,1.11,0.268,1.635l-13.042,18.12 C178.423,136.279,177.69,136.398,177.166,136.021z"/> <path fill="#C0C2C4" d="M182.731,140.026c-0.524-0.378-0.644-1.11-0.266-1.635l13.041-18.12 c0.377-0.525,1.109-0.645,1.634-0.267c0.525,0.378,0.645,1.11,0.268,1.635l-13.042,18.12 C183.989,140.285,183.256,140.404,182.731,140.026z"/> <path fill="#C0C2C4" d="M188.297,144.032c-0.525-0.378-0.645-1.11-0.267-1.635l13.04-18.119c0.379-0.525,1.11-0.645,1.636-0.266 c0.525,0.377,0.644,1.109,0.267,1.634l-13.041,18.121C189.554,144.291,188.823,144.41,188.297,144.032z"/> <path fill="#C0C2C4" d="M193.863,148.038c-0.525-0.378-0.645-1.111-0.266-1.636l13.04-18.119 c0.378-0.525,1.11-0.644,1.636-0.267c0.525,0.377,0.645,1.11,0.266,1.635l-13.041,18.12 C195.12,148.296,194.389,148.416,193.863,148.038z"/> <path fill="#C0C2C4" d="M199.429,152.043c-0.525-0.378-0.645-1.11-0.267-1.635l13.041-18.119 c0.377-0.525,1.11-0.645,1.634-0.267c0.525,0.377,0.646,1.109,0.267,1.635l-13.04,18.12 C200.685,152.301,199.953,152.421,199.429,152.043z"/> <path fill="#C0C2C4" d="M204.994,156.049c-0.524-0.378-0.644-1.111-0.267-1.635l13.042-18.12 c0.377-0.525,1.109-0.644,1.634-0.266c0.525,0.377,0.645,1.109,0.267,1.634l-13.041,18.12 C206.251,156.308,205.519,156.427,204.994,156.049z"/> <path fill="#C0C2C4" d="M210.56,160.055c-0.525-0.378-0.645-1.11-0.267-1.635l13.041-18.12c0.378-0.525,1.11-0.645,1.635-0.266 c0.525,0.378,0.644,1.109,0.266,1.634l-13.041,18.119C211.817,160.313,211.085,160.433,210.56,160.055z"/> <path fill="#C0C2C4" d="M216.126,164.06c-0.526-0.378-0.645-1.11-0.267-1.635l13.04-18.119c0.378-0.525,1.11-0.644,1.636-0.267 c0.524,0.378,0.644,1.11,0.266,1.635l-13.041,18.119C217.383,164.319,216.65,164.438,216.126,164.06z"/> <path fill="#C0C2C4" d="M221.691,168.066c-0.525-0.378-0.644-1.11-0.267-1.635l13.041-18.119 c0.378-0.525,1.11-0.645,1.635-0.267c0.525,0.378,0.645,1.11,0.267,1.635l-13.041,18.119 C222.948,168.324,222.216,168.444,221.691,168.066z"/> <path fill="#C0C2C4" d="M227.256,172.071c-0.525-0.377-0.644-1.109-0.266-1.634l13.041-18.12 c0.378-0.525,1.109-0.644,1.635-0.266c0.525,0.378,0.644,1.11,0.266,1.635l-13.04,18.12 C228.514,172.33,227.782,172.449,227.256,172.071z"/> <path fill="#C0C2C4" d="M232.822,176.077c-0.525-0.378-0.644-1.11-0.266-1.635l13.04-18.119c0.378-0.525,1.11-0.645,1.635-0.266 c0.524,0.377,0.645,1.109,0.267,1.634l-13.041,18.12C234.08,176.335,233.348,176.455,232.822,176.077z"/> <path fill="#C0C2C4" d="M238.389,180.083c-0.525-0.378-0.646-1.11-0.267-1.635l13.04-18.12c0.378-0.524,1.11-0.644,1.635-0.267 c0.525,0.378,0.645,1.11,0.267,1.636l-13.041,18.119C239.646,180.342,238.913,180.46,238.389,180.083z"/> <path fill="#C0C2C4" d="M243.954,184.088c-0.524-0.378-0.645-1.11-0.267-1.635l13.041-18.119 c0.378-0.526,1.11-0.645,1.635-0.266c0.525,0.377,0.646,1.11,0.267,1.634l-13.041,18.12 C245.21,184.346,244.479,184.467,243.954,184.088z"/> <path fill="#C0C2C4" d="M249.519,188.094c-0.525-0.377-0.644-1.109-0.266-1.634l13.041-18.12 c0.378-0.524,1.109-0.645,1.635-0.267c0.525,0.378,0.645,1.11,0.267,1.635l-13.04,18.12 C250.777,188.353,250.044,188.472,249.519,188.094z"/> <path fill="#C0C2C4" d="M262.949,182.051l-88.493-63.689c-0.525-0.377-0.644-1.11-0.267-1.634 c0.378-0.525,1.11-0.645,1.635-0.267l88.493,63.689c0.525,0.377,0.645,1.11,0.267,1.635 C264.208,182.309,263.475,182.429,262.949,182.051z"/> <path fill="#C0C2C4" d="M259.445,186.92l-88.494-63.689c-0.524-0.377-0.644-1.109-0.266-1.634 c0.378-0.525,1.11-0.644,1.635-0.267l88.493,63.689c0.525,0.378,0.645,1.11,0.267,1.635 C260.702,187.18,259.97,187.298,259.445,186.92z"/> </g> <g> <rect x="285.029" y="241.591" transform="matrix(-0.8116 -0.5841 0.5841 -0.8116 508.5225 649.0162)" fill="#1C0400" width="147.733" height="1.867"/> <rect x="285.502" y="239.373" transform="matrix(-0.8117 -0.5841 0.5841 -0.8117 510.3868 646.4735)" fill="#452C1A" width="147.83" height="3.159"/> <path fill="#C0C2C4" d="M340.154,204.76l91.155,65.606l-14.409,20.02l-91.156-65.605L340.154,204.76z M428.041,270.899 l-87.354-62.869l-11.672,16.218l87.354,62.869L428.041,270.899z"/> <path fill="#C0C2C4" d="M425.405,266.115c0.524,0.378,0.644,1.11,0.268,1.636l-13.042,18.119 c-0.378,0.525-1.11,0.645-1.635,0.267c-0.525-0.378-0.646-1.11-0.267-1.635l13.04-18.12 C424.149,265.857,424.88,265.738,425.405,266.115z"/> <path fill="#C0C2C4" d="M419.84,262.11c0.526,0.378,0.645,1.11,0.266,1.635l-13.04,18.119c-0.378,0.525-1.109,0.645-1.635,0.267 s-0.644-1.11-0.266-1.636l13.039-18.119C418.582,261.852,419.314,261.732,419.84,262.11z"/> <path fill="#C0C2C4" d="M414.273,258.104c0.525,0.378,0.646,1.11,0.267,1.636l-13.04,18.119 c-0.378,0.525-1.11,0.645-1.636,0.267c-0.524-0.378-0.644-1.11-0.267-1.635l13.041-18.12 C413.018,257.846,413.748,257.727,414.273,258.104z"/> <path fill="#C0C2C4" d="M408.708,254.099c0.525,0.377,0.645,1.109,0.268,1.634l-13.042,18.12 c-0.377,0.525-1.109,0.645-1.634,0.267c-0.525-0.378-0.646-1.11-0.268-1.636l13.041-18.119 C407.451,253.84,408.183,253.721,408.708,254.099z"/> <path fill="#C0C2C4" d="M403.143,250.093c0.525,0.378,0.646,1.11,0.266,1.635l-13.039,18.119 c-0.378,0.526-1.11,0.645-1.635,0.267c-0.526-0.377-0.645-1.11-0.268-1.635l13.041-18.12 C401.886,249.834,402.618,249.715,403.143,250.093z"/> <path fill="#C0C2C4" d="M397.576,246.087c0.524,0.377,0.645,1.109,0.269,1.635l-13.043,18.12 c-0.377,0.525-1.108,0.645-1.634,0.267c-0.524-0.378-0.646-1.111-0.267-1.636l13.04-18.12 C396.32,245.83,397.052,245.709,397.576,246.087z"/> <path fill="#C0C2C4" d="M392.012,242.082c0.525,0.378,0.644,1.11,0.265,1.635l-13.039,18.12 c-0.378,0.525-1.11,0.645-1.636,0.266c-0.524-0.377-0.644-1.109-0.267-1.634l13.042-18.119 C390.754,241.823,391.486,241.704,392.012,242.082z"/> <path fill="#C0C2C4" d="M386.446,238.076c0.523,0.378,0.645,1.11,0.266,1.635l-13.04,18.12c-0.378,0.524-1.11,0.644-1.636,0.266 c-0.525-0.378-0.644-1.11-0.266-1.635l13.039-18.12C385.188,237.818,385.921,237.698,386.446,238.076z"/> <path fill="#C0C2C4" d="M380.879,234.071c0.526,0.378,0.645,1.11,0.269,1.635l-13.042,18.119 c-0.378,0.525-1.109,0.645-1.634,0.267c-0.526-0.378-0.645-1.11-0.267-1.635l13.04-18.119 C379.624,233.812,380.354,233.693,380.879,234.071z"/> <path fill="#C0C2C4" d="M375.315,230.065c0.523,0.378,0.644,1.109,0.265,1.634l-13.039,18.12 c-0.379,0.524-1.11,0.645-1.636,0.267c-0.524-0.378-0.645-1.11-0.267-1.636l13.042-18.119 C374.057,229.807,374.789,229.687,375.315,230.065z"/> <path fill="#C0C2C4" d="M369.747,226.06c0.526,0.378,0.646,1.109,0.269,1.635l-13.042,18.119 c-0.376,0.525-1.109,0.645-1.634,0.267c-0.526-0.378-0.645-1.11-0.267-1.635l13.04-18.12 C368.492,225.801,369.225,225.682,369.747,226.06z"/> <path fill="#C0C2C4" d="M364.183,222.054c0.525,0.377,0.645,1.109,0.267,1.634l-13.04,18.12 c-0.379,0.524-1.111,0.644-1.635,0.266c-0.525-0.378-0.645-1.11-0.268-1.635l13.042-18.119 C362.925,221.795,363.657,221.676,364.183,222.054z"/> <path fill="#C0C2C4" d="M358.617,218.048c0.526,0.378,0.645,1.11,0.267,1.635l-13.042,18.12 c-0.377,0.525-1.108,0.644-1.634,0.266s-0.645-1.11-0.266-1.635l13.039-18.12C357.359,217.79,358.093,217.67,358.617,218.048z"/> <path fill="#C0C2C4" d="M353.051,214.042c0.525,0.378,0.646,1.11,0.268,1.635l-13.041,18.12 c-0.378,0.524-1.109,0.644-1.635,0.266c-0.525-0.378-0.645-1.11-0.267-1.635l13.041-18.119 C351.795,213.784,352.525,213.665,353.051,214.042z"/> <path fill="#C0C2C4" d="M347.486,210.037c0.524,0.377,0.645,1.11,0.267,1.635l-13.041,18.119 c-0.379,0.525-1.11,0.645-1.635,0.267c-0.524-0.378-0.645-1.11-0.267-1.635l13.041-18.12 C346.228,209.778,346.961,209.659,347.486,210.037z"/> <path fill="#C0C2C4" d="M334.055,216.08l88.494,63.688c0.524,0.377,0.646,1.11,0.267,1.635c-0.377,0.525-1.11,0.644-1.635,0.267 l-88.493-63.689c-0.524-0.377-0.646-1.11-0.268-1.635C332.798,215.821,333.529,215.702,334.055,216.08z"/> <path fill="#C0C2C4" d="M337.56,211.21l88.494,63.689c0.525,0.378,0.645,1.11,0.267,1.635c-0.377,0.525-1.11,0.645-1.635,0.267 l-88.493-63.689c-0.524-0.377-0.645-1.11-0.268-1.635C336.304,210.951,337.035,210.832,337.56,211.21z"/> </g> <rect x="266.287" y="136.669" transform="matrix(-0.5841 0.8116 -0.8116 -0.5841 651.326 -57.2169)" fill="#452C1A" width="148.068" height="3.158"/> <g> <rect x="268.096" y="137.738" transform="matrix(-0.5841 0.8117 -0.8117 -0.5841 654.2683 -57.8806)" fill="#3A2311" width="147.732" height="1.868"/> <path fill="#C0C2C4" d="M304.197,157.415l65.605-91.157l20.021,14.409l-65.606,91.156L304.197,157.415z M370.335,69.528 l-62.868,87.354l16.218,11.672l62.869-87.353L370.335,69.528z"/> <path fill="#C0C2C4" d="M365.553,72.163c0.378-0.525,1.11-0.645,1.636-0.267l18.118,13.041c0.526,0.378,0.646,1.11,0.269,1.635 c-0.38,0.525-1.111,0.645-1.636,0.266l-18.119-13.04C365.294,73.42,365.175,72.688,365.553,72.163z"/> <path fill="#C0C2C4" d="M361.548,77.729c0.377-0.524,1.109-0.645,1.635-0.267l18.12,13.041c0.523,0.378,0.644,1.11,0.266,1.635 c-0.378,0.526-1.11,0.645-1.635,0.267l-18.12-13.04C361.289,78.985,361.17,78.253,361.548,77.729z"/> <path fill="#C0C2C4" d="M357.541,83.294c0.379-0.525,1.111-0.644,1.636-0.266l18.121,13.041c0.524,0.378,0.643,1.11,0.264,1.635 c-0.376,0.525-1.108,0.644-1.635,0.266l-18.119-13.041C357.282,84.551,357.164,83.819,357.541,83.294z"/> <path fill="#C0C2C4" d="M353.536,88.86c0.378-0.526,1.109-0.645,1.635-0.267l18.119,13.041c0.524,0.377,0.646,1.109,0.268,1.635 c-0.379,0.524-1.109,0.645-1.635,0.267l-18.119-13.041C353.277,90.117,353.158,89.384,353.536,88.86z"/> <path fill="#C0C2C4" d="M349.53,94.426c0.378-0.525,1.109-0.644,1.636-0.267l18.119,13.042c0.524,0.377,0.644,1.11,0.267,1.635 c-0.379,0.525-1.11,0.644-1.635,0.266l-18.12-13.041C349.271,95.683,349.153,94.95,349.53,94.426z"/> <path fill="#C0C2C4" d="M345.523,99.991c0.379-0.525,1.111-0.644,1.637-0.266l18.12,13.041c0.524,0.378,0.644,1.109,0.265,1.635 c-0.377,0.525-1.109,0.644-1.634,0.267l-18.12-13.041C345.267,101.248,345.146,100.517,345.523,99.991z"/> <path fill="#C0C2C4" d="M341.519,105.557c0.379-0.525,1.111-0.645,1.635-0.266l18.12,13.04c0.526,0.379,0.645,1.11,0.267,1.636 c-0.378,0.524-1.109,0.644-1.636,0.266l-18.118-13.041C341.26,106.814,341.142,106.083,341.519,105.557z"/> <path fill="#C0C2C4" d="M337.514,111.122c0.378-0.525,1.109-0.644,1.636-0.266l18.119,13.041 c0.523,0.378,0.645,1.11,0.267,1.634c-0.379,0.526-1.11,0.645-1.635,0.267l-18.119-13.041 C337.255,112.379,337.136,111.647,337.514,111.122z"/> <path fill="#C0C2C4" d="M333.509,116.688c0.376-0.524,1.108-0.645,1.634-0.267l18.12,13.042 c0.524,0.377,0.645,1.109,0.266,1.634c-0.378,0.525-1.109,0.645-1.634,0.267l-18.12-13.041 C333.25,117.945,333.131,117.213,333.509,116.688z"/> <path fill="#C0C2C4" d="M329.501,122.254c0.379-0.525,1.112-0.644,1.636-0.267l18.121,13.041 c0.524,0.377,0.643,1.109,0.266,1.634c-0.378,0.525-1.11,0.645-1.637,0.267l-18.117-13.041 C329.244,123.511,329.124,122.779,329.501,122.254z"/> <path fill="#C0C2C4" d="M325.496,127.82c0.378-0.525,1.111-0.645,1.636-0.267l18.119,13.041c0.526,0.378,0.645,1.11,0.267,1.635 c-0.378,0.524-1.109,0.644-1.635,0.267l-18.119-13.042C325.237,129.077,325.119,128.345,325.496,127.82z"/> <path fill="#C0C2C4" d="M321.491,133.385c0.378-0.525,1.109-0.645,1.636-0.266l18.118,13.041 c0.524,0.377,0.646,1.11,0.267,1.634c-0.378,0.525-1.108,0.645-1.634,0.267l-18.119-13.041 C321.232,134.643,321.113,133.91,321.491,133.385z"/> <path fill="#C0C2C4" d="M317.485,138.95c0.377-0.524,1.11-0.644,1.637-0.266l18.118,13.041c0.525,0.378,0.644,1.109,0.267,1.635 c-0.379,0.525-1.111,0.645-1.635,0.266l-18.12-13.04C317.228,140.208,317.107,139.476,317.485,138.95z"/> <path fill="#C0C2C4" d="M313.479,144.517c0.379-0.525,1.111-0.645,1.636-0.267l18.119,13.041 c0.526,0.378,0.645,1.11,0.268,1.635c-0.378,0.525-1.11,0.644-1.636,0.266l-18.118-13.041 C313.221,145.773,313.103,145.042,313.479,144.517z"/> <path fill="#C0C2C4" d="M309.474,150.082c0.379-0.524,1.111-0.644,1.636-0.266l18.12,13.041c0.525,0.378,0.645,1.11,0.266,1.635 c-0.378,0.525-1.109,0.644-1.635,0.267l-18.119-13.042C309.216,151.339,309.097,150.607,309.474,150.082z"/> <path fill="#C0C2C4" d="M315.517,163.512l63.689-88.492c0.377-0.526,1.109-0.645,1.635-0.267 c0.525,0.377,0.645,1.11,0.268,1.635l-63.689,88.494c-0.378,0.524-1.11,0.644-1.635,0.266 C315.258,164.77,315.139,164.038,315.517,163.512z"/> <path fill="#C0C2C4" d="M310.647,160.008l63.688-88.494c0.379-0.525,1.111-0.645,1.634-0.266 c0.526,0.377,0.646,1.11,0.269,1.634l-63.689,88.494c-0.379,0.525-1.109,0.645-1.635,0.267 C310.39,161.265,310.27,160.533,310.647,160.008z"/> </g> <g> <rect x="181.177" y="258.527" transform="matrix(0.5841 -0.8116 0.8116 0.5841 -104.529 314.9034)" fill="#3A2311" width="147.733" height="1.865"/> <rect x="183.134" y="259.249" transform="matrix(0.5841 -0.8117 0.8117 0.5841 -105.2405 316.2538)" fill="#1C0400" width="145.74" height="3.159"/> <path fill="#C0C2C4" d="M292.808,240.716l-65.605,91.157l-20.021-14.41l65.606-91.156L292.808,240.716z M226.67,328.602 l62.868-87.353l-16.218-11.672l-62.868,87.353L226.67,328.602z"/> <path fill="#C0C2C4" d="M231.453,325.967c-0.378,0.527-1.11,0.646-1.635,0.27l-18.12-13.043 c-0.525-0.377-0.645-1.109-0.266-1.635c0.378-0.525,1.11-0.645,1.635-0.266l18.119,13.039 C231.711,324.713,231.83,325.443,231.453,325.967z"/> <path fill="#C0C2C4" d="M235.458,320.404c-0.378,0.521-1.11,0.645-1.636,0.266l-18.118-13.041 c-0.525-0.379-0.645-1.109-0.267-1.635c0.378-0.525,1.11-0.645,1.634-0.268l18.121,13.043 C235.717,319.146,235.836,319.877,235.458,320.404z"/> <path fill="#C0C2C4" d="M239.465,314.836c-0.378,0.527-1.111,0.645-1.636,0.268l-18.12-13.039 c-0.525-0.379-0.644-1.111-0.266-1.637s1.11-0.645,1.635-0.266l18.119,13.039C239.722,313.58,239.842,314.312,239.465,314.836z"/> <path fill="#C0C2C4" d="M243.47,309.271c-0.378,0.523-1.111,0.645-1.636,0.266l-18.12-13.041 c-0.524-0.378-0.644-1.108-0.266-1.635c0.377-0.524,1.109-0.644,1.635-0.267l18.12,13.042 C243.729,308.014,243.847,308.744,243.47,309.271z"/> <path fill="#C0C2C4" d="M247.476,303.705c-0.378,0.525-1.11,0.645-1.635,0.268l-18.12-13.041 c-0.525-0.379-0.644-1.111-0.267-1.636c0.378-0.525,1.11-0.645,1.635-0.266l18.119,13.041 C247.734,302.449,247.853,303.182,247.476,303.705z"/> <path fill="#C0C2C4" d="M251.481,298.139c-0.378,0.525-1.111,0.645-1.635,0.268l-18.12-13.042 c-0.525-0.378-0.644-1.109-0.266-1.635c0.377-0.525,1.109-0.644,1.634-0.267l18.12,13.04 C251.739,296.883,251.858,297.615,251.481,298.139z"/> <path fill="#C0C2C4" d="M255.486,292.574c-0.378,0.525-1.11,0.644-1.635,0.267L235.732,279.8 c-0.525-0.378-0.644-1.11-0.267-1.635c0.378-0.524,1.11-0.645,1.635-0.266l18.12,13.041 C255.745,291.316,255.864,292.049,255.486,292.574z"/> <path fill="#C0C2C4" d="M259.492,287.008c-0.377,0.525-1.11,0.645-1.635,0.267l-18.119-13.041 c-0.525-0.378-0.645-1.109-0.267-1.634c0.377-0.525,1.11-0.645,1.635-0.267l18.12,13.041 C259.75,285.751,259.87,286.483,259.492,287.008z"/> <path fill="#C0C2C4" d="M263.497,281.443c-0.377,0.525-1.109,0.644-1.634,0.266l-18.12-13.041 c-0.525-0.378-0.645-1.11-0.266-1.635c0.378-0.525,1.109-0.645,1.634-0.267l18.119,13.041 C263.756,280.185,263.875,280.917,263.497,281.443z"/> <path fill="#C0C2C4" d="M267.503,275.877c-0.378,0.525-1.11,0.645-1.636,0.266l-18.119-13.04 c-0.525-0.378-0.644-1.11-0.266-1.635c0.377-0.525,1.109-0.645,1.634-0.267l18.12,13.041 C267.762,274.62,267.881,275.352,267.503,275.877z"/> <path fill="#C0C2C4" d="M271.509,270.311c-0.378,0.525-1.11,0.645-1.635,0.267l-18.12-13.041 c-0.524-0.378-0.644-1.11-0.266-1.635c0.378-0.525,1.109-0.645,1.635-0.267l18.119,13.041 C271.767,269.054,271.887,269.786,271.509,270.311z"/> <path fill="#C0C2C4" d="M275.515,264.746c-0.378,0.525-1.11,0.644-1.635,0.266l-18.119-13.04 c-0.526-0.378-0.644-1.11-0.267-1.636c0.378-0.525,1.11-0.644,1.634-0.266l18.12,13.04 C275.773,263.489,275.892,264.22,275.515,264.746z"/> <path fill="#C0C2C4" d="M279.521,259.18c-0.378,0.525-1.11,0.644-1.636,0.266l-18.119-13.041 c-0.525-0.377-0.645-1.109-0.267-1.634c0.378-0.524,1.109-0.645,1.635-0.267l18.119,13.041 C279.778,257.923,279.898,258.655,279.521,259.18z"/> <path fill="#C0C2C4" d="M283.526,253.614c-0.378,0.525-1.11,0.644-1.635,0.266l-18.121-13.041 c-0.525-0.377-0.644-1.11-0.266-1.634c0.378-0.525,1.109-0.645,1.635-0.268l18.12,13.042 C283.785,252.357,283.903,253.089,283.526,253.614z"/> <path fill="#C0C2C4" d="M287.532,248.049c-0.378,0.524-1.11,0.644-1.635,0.266l-18.119-13.041 c-0.526-0.378-0.645-1.109-0.267-1.634c0.377-0.525,1.109-0.645,1.635-0.267l18.12,13.041 C287.79,246.792,287.91,247.523,287.532,248.049z"/> <path fill="#C0C2C4" d="M281.489,234.618l-63.689,88.496c-0.378,0.525-1.11,0.643-1.636,0.266 c-0.524-0.377-0.643-1.109-0.266-1.635l63.689-88.494c0.378-0.526,1.11-0.645,1.636-0.267 C281.747,233.36,281.866,234.093,281.489,234.618z"/> <path fill="#C0C2C4" d="M286.358,238.123l-63.688,88.497c-0.378,0.521-1.111,0.643-1.636,0.264 c-0.525-0.377-0.644-1.109-0.266-1.635l63.689-88.494c0.377-0.525,1.109-0.645,1.635-0.267 C286.617,236.866,286.736,237.598,286.358,238.123z"/> </g> </g> <circle fill="#1C0400" cx="298.397" cy="199.513" r="6.188"/> <path fill="#1C0400" d="M292.808,199.513c0,0-0.308-4.971,0-4.961c0.308,0.01,5.574-1.18,5.574-1.18l3.959,5.694l-2.127,4.518 l-1.712,2.116h-5.571L292.808,199.513z"/> <circle fill="#441F12" cx="292.808" cy="200.126" r="5.574"/> </g> <polygon fill="#383839" points="261.012,359.278 273.404,379.673 273.404,374.193 261.157,356.994 "/> <polygon fill="#333334" points="312.245,388.061 355.061,383.199 355.061,378.338 312.245,383.315 "/> <polygon points="355.061,383.199 355.061,378.338 372.801,359.28 372.801,362.49 "/> <g> <path fill="#85C441" d="M337.313,391.418l-4.719-3.05c0,0-6.662-11.752-0.312-17.254 C335.752,375.698,338.336,390.302,337.313,391.418z"/> <path fill="#85C441" d="M330.405,389.266c-0.404,0.346,6.771-5.321,6.771-5.321s4.885-14.893-0.363-23.794 C333.757,365.521,336.446,384.088,330.405,389.266z"/> <path fill="#286B24" d="M341.313,390.15l-4.352-3.556c0,0-5.311-12.421,1.613-17.182 C341.512,374.354,342.453,389.155,341.313,390.15z"/> <path fill="#47852E" d="M335.78,402.104l-3.427-3.822c0,0-4.381-12.778,2.875-17.016 C337.793,386.41,336.99,401.195,335.78,402.104z"/> <path fill="#47852E" d="M346.301,393.618l-3.427-3.822c0,0-4.381-12.778,2.875-17.016 C348.313,377.925,347.511,392.71,346.301,393.618z"/> <path fill="#85C441" d="M335.033,394.786c-0.245,0.18,2.133-1.418,4.211-2.817c1.554-1.047,2.94-1.982,2.94-1.982 s5.985-14.486,1.417-23.755C340.152,371.359,341.444,390.074,335.033,394.786z"/> <path fill="#85C441" d="M335.78,402.104l-4.085-0.271c0,0-0.704-17.775,7.277-20.401 C340.404,386.999,337.153,401.469,335.78,402.104z"/> <path fill="#286B24" d="M330.392,401.833h2.357c0,0,1.109-17.083-6.432-20.91C329.629,387.579,329.698,400.979,330.392,401.833z"/> <path fill="#286B24" d="M336.518,386.256c0,0-3.868,14.675-3.769,15.577c1.141,0.146,0.79,0.122,0.79,0.122 S336.365,388.61,336.518,386.256z"/> <path fill="#286B24" d="M343.405,374.086c-0.01-0.167-1.342,14.038-3.739,17.599C340.559,391.083,343.935,383.025,343.405,374.086 z"/> <path fill="#85C441" d="M348.749,399.696c0.143,0.266-1.313-2.203-2.586-4.364c-0.951-1.615-1.799-3.059-1.799-3.059 s1.394-14.592,10.158-19.725C355.276,378.379,345.015,392.715,348.749,399.696z"/> <path fill="#286B24" d="M350.908,378.935c0.091-0.129-5.53,11.909-5.004,15.959C345.358,393.965,346.089,385.825,350.908,378.935z "/> </g> <path fill="#00373D" d="M303.008,332.723c0.437-0.088,3.213-2.189,3.213-2.189l1.419-0.565l-1.419,51.817l-3.294-0.658 L303.008,332.723z"/> <path fill="#D7F0FC" d="M286.237,328.65c0.046-0.137-0.916-1.053-0.916-1.053l0.917-0.494l21.401,2.864l-1.419,0.565 L286.237,328.65z"/> <path fill="#FFFFFF" d="M304.361,383.005l-22.408-5.263l3.367-50.145l20.9,2.936L304.361,383.005z M285.113,375.402l16.379,3.847 l1.631-46.036l-15.149-1.658L285.113,375.402z"/> <polyline fill="#441F12" points="283.533,376.572 286.579,329.893 304.654,332.362 302.927,381.127 283.533,376.572 "/> <path fill="#464547" d="M273.404,374.193c0,0-0.302,5.479,0,5.479s38.841,8.388,38.841,8.388v-4.745L273.404,374.193z"/> <path d="M283.917,376.572c0.39-0.35,14.981-5.458,14.981-5.458l0.955-39.408l4.802,0.656l-1.728,48.561L283.917,376.572z"/> <path fill="#D7F0FC" d="M286.237,328.65c0.046-0.137-1.185-1.091-0.916-1.053s0.917-0.494,0.917-0.494l21.401,3.15l-2.356,0.976 L286.237,328.65z"/> <ellipse fill="#97999C" cx="273.443" cy="397.242" rx="4.091" ry="1.39"/> <ellipse fill="#97999C" cx="287.315" cy="396.188" rx="4.612" ry="1.566"/> <ellipse fill="#97999C" cx="281.318" cy="393.73" rx="3.455" ry="1.174"/> <ellipse fill="#97999C" cx="274.354" cy="392.558" rx="2.542" ry="0.863"/> <ellipse fill="#97999C" cx="287.315" cy="391.736" rx="2.542" ry="0.863"/> <ellipse fill="#97999C" cx="319.304" cy="419.577" rx="4.091" ry="1.39"/> <ellipse fill="#97999C" cx="329.774" cy="419.912" rx="4.612" ry="1.566"/> <ellipse fill="#97999C" cx="329.774" cy="416.592" rx="3.455" ry="1.174"/> <ellipse fill="#97999C" cx="317.755" cy="413.744" rx="2.542" ry="0.863"/> <ellipse fill="#97999C" cx="309.743" cy="414.607" rx="2.543" ry="0.863"/> <path fill="#898873" d="M329.54,431.668c0.065,0,0.68,4.943,0.68,4.943l30.524-10.676l-1.095-5.387"/> </g> <g id="Warstwa_5"> <path fill="#5BA039" d="M340.901,396.495c-0.195-0.44-2.258-4.122-2.258-4.122s2.502-3.332,7.103-2.762s5.163,1.158,5.163,1.158 s-0.611,10.815-0.856,10.473S340.901,396.495,340.901,396.495z"/> <path fill="#3F7A29" d="M335.78,402.104c-0.737,0.271,12.189-4.991,12.549-5.321s-10.427-0.596-10.427-0.596L335.78,402.104z"/> <path fill="#3F7A29" d="M348.797,390.141c-0.737,0.271,12.189-4.991,12.549-5.321s-10.427-0.596-10.427-0.596L348.797,390.141z"/> </g> </svg>